<?xml version="1.0" encoding="utf-8"?>
<!-- Generator: Adobe Illustrator 24.0.1, SVG Export Plug-In . SVG Version: 6.00 Build 0)  -->
<svg version="1.1" id="Layer_1" xmlns="http://www.w3.org/2000/svg" xmlns:xlink="http://www.w3.org/1999/xlink" x="0px" y="0px"
	 viewBox="0 0 1280 1024" style="enable-background:new 0 0 1280 1024;" xml:space="preserve">
<style type="text/css">
	.st0{fill:#2C2C2C;}
	.st1{fill:#BCBCBC;}
	.st2{fill:#FAB382;}
</style>
<path class="st0" d="M1049.68,239.19c0.05,0.34,0.09,0.67,0.14,1.01c0.01,0.01,0.02,0.01,0.03,0.01c-0.05-0.35-0.1-0.71-0.15-1.06
	C1049.69,239.17,1049.68,239.17,1049.68,239.19L1049.68,239.19L1049.68,239.19z"/>
<path class="st0" d="M1042.98,391.09c0.01,0,0.01,0,0.02,0c-0.01-0.02-0.01-0.03-0.02-0.05
	C1042.98,391.06,1042.98,391.07,1042.98,391.09L1042.98,391.09L1042.98,391.09z"/>
<polygon class="st0" points="1203.63,539.91 1203.63,539.91 1203.63,539.91 1203.63,539.91 "/>
<path class="st0" d="M1164.57,678.41c0-0.02,0-0.04,0-0.06c0-0.01-0.01-0.01-0.01-0.02
	C1164.57,678.36,1164.57,678.39,1164.57,678.41L1164.57,678.41L1164.57,678.41z"/>
<path class="st0" d="M425.12,696.57c0.03-0.07,0.07-0.13,0.1-0.19c-0.05-0.05-0.09-0.11-0.14-0.16
	C425.09,696.33,425.11,696.45,425.12,696.57L425.12,696.57L425.12,696.57z"/>
<path class="st0" d="M387.41,275.13c-0.48,0.02-0.97,0.05-1.44,0.05c-0.01,0-0.02,0-0.03,0l-0.36,0.12c0,1.55-0.01,3.1-0.07,4.71
	c0,0.06,0,0.12,0,0.18c0,0,0,0-0.01,0.01c0,0.02,0,0.04,0,0.06c-0.23,0.21-0.39,0.49-0.48,0.81c-0.11,0.64-0.11,1.26-0.11,1.91v0.41
	l-0.02,1.65l-0.02,1.65c-0.02,1.4-0.02,2.81-0.03,4.21l-0.01,2.94c-0.02,5.24-0.05,10.48-0.08,15.72l-0.06,10.76
	c-0.04,7.11-0.08,14.22-0.12,21.34c-0.11,15.23-0.18,30.45-0.25,45.67l-0.1,20.29l-0.06,13.53l-0.05,10.2l-0.05,10.2l-0.06,11.7
	c-0.04,7.78-0.08,15.57-0.1,23.36l-0.08,22.67c-0.05,15.03-0.11,30.06-0.12,45.1c-0.02,9.85-0.07,19.69-0.16,29.49
	c0,0.02,0,0.03,0,0.05l0.52,0.05l0.26,0.02c0.51,0.04,1.01,0.06,1.52,0.08l0.37,0.01l0.54,0.01l0.31,0.02h0
	c0.01-1.66,0.02-3.33,0.03-5c0.12-22.89,0.34-45.79,0.49-68.68c0.15-22.89,0.29-45.77,0.41-68.66c0.11-22.17,0.24-44.35,0.36-66.53
	c0.08-14.64,0.14-29.26,0.21-43.9c0.03-7.23,0.07-14.46,0.11-21.69c0.02-3.6,0.04-7.21,0.05-10.83c0.01-1.2,0.01-2.41,0.01-3.62
	c0.01-0.77,0-1.56,0-2.33c0-0.45,0-0.87-0.04-1.31c0-0.12-0.02-0.25-0.04-0.38c-0.01-0.03-0.02-0.07-0.02-0.1c-0.01,0-0.01,0-0.01,0
	c-0.09-0.32-0.26-0.62-0.51-0.87c0.01-1.63,0.02-3.27,0.04-4.9c0-0.08-0.01-0.15-0.02-0.23l-0.01,0
	C387.89,275.09,387.65,275.11,387.41,275.13L387.41,275.13L387.41,275.13z"/>
<path class="st0" d="M383.48,598.7v0.4c-0.02,0.21-0.03,0.41,0,0.63l-0.03,7.49l-0.02,7.46c-0.01,3.81-0.02,7.62-0.04,11.43
	l-0.02,2.55l-0.02,2.54c0,0.79-0.01,1.59-0.02,2.38v0.44l0.01,0.45c0,0.43-0.01,0.85-0.03,1.28v0.2c0.02,0.33,0.16,0.64,0.44,0.95
	c0,0.82,0,1.65-0.02,2.48c-0.04,0.31,0.15,0.68,0.36,0.87c0.17,0.17,0.39,0.3,0.71,0.4c0.05,0.01,0.11,0.01,0.17,0.01
	c0.7,0,1.29-0.58,1.29-1.28c-0.01-0.82,0-1.64,0.01-2.47c0.29-0.31,0.48-0.71,0.44-1.16c-0.01-0.13-0.01-0.27-0.02-0.4
	c0.01-0.23,0.02-0.47,0.02-0.71c0-0.54,0-1.09,0.01-1.63c0-1.22,0.01-2.44,0.01-3.66c0.01-2.91,0.03-5.83,0.05-8.73
	c0.04-5.71,0.08-11.42,0.12-17.12c0.01-1.95,0.02-3.9,0.04-5.86h-0.23h-0.49l-1.5-0.02c-0.36-0.01-0.74-0.01-1.2-0.09
	C383.53,597.92,383.52,598.31,383.48,598.7L383.48,598.7L383.48,598.7z"/>
<path class="st0" d="M649.7,639c-12.94,0.02-25.88,0.02-38.82,0.02c-10.07,0-20.13,0-30.19,0.01c-22.19,0.02-44.37,0.05-66.55,0.11
	c-22.91,0.07-45.82,0.15-68.73,0.24c-10.38,0.05-20.77,0.08-31.16,0.06c-4.77-0.02-9.54-0.02-14.31-0.02
	c-2.38,0-4.75-0.01-7.13-0.02c-1.22,0-2.43,0-3.64-0.01c-0.42,0-0.84-0.01-1.25-0.01c-0.53,0-1.08-0.05-1.61,0
	c-0.28-0.01-0.54,0.08-0.77,0.24c-0.05,0.05-0.11,0.09-0.17,0.15c-0.24,0.24-0.38,0.58-0.38,0.92c0.02,0,0.03,0.01,0.05,0.01
	c0,0.33,0.14,0.67,0.37,0.9c0.06,0.06,0.12,0.11,0.21,0.18c0.21,0.13,0.43,0.18,0.69,0.18c0.13,0.02,0.27,0.02,0.4,0.02l0.34-0.01
	l0.31-0.01c0.45-0.01,0.91-0.01,1.36-0.01l1.66-0.01l1.66-0.01l3.95-0.01l3.95-0.01c4.97,0,9.94-0.01,14.9-0.02h5.44
	c7.29,0,14.57,0.02,21.86,0.05l5.44,0.02l35.03,0.12l35.43,0.12c27.5,0.1,54.93,0.11,82.94,0.11l13.2,0.01
	c13.21,0.01,26.41,0.01,39.61,0.02c11.16,0.02,22.32,0.04,33.48,0.06h0.39l9.45,0.03c5.99,0.02,11.98,0.03,17.98,0.03l5.63-0.01
	l9.55-0.02c5.31-0.01,10.61-0.02,15.92-0.05h5.1c2.38,0,4.77,0,7.15-0.02l1.05-0.01c1.43-0.01,2.84-0.02,4.27-0.05l1.41-0.03
	l1.42-0.03l0.56-0.01c0.36-0.01,0.72-0.02,1.13-0.04c0.25-0.01,0.49-0.02,0.73-0.06c0.43-0.02,0.86-0.02,1.29-0.03l0.64-0.02h0.21
	c0.34-0.01,0.68-0.02,1.01-0.08c0,0,0.02,0.01,0.06,0.03c0.05-0.01,0.1-0.02,0.14-0.03c0.35-0.04,0.71-0.06,1.07-0.09
	c0.2-0.02,0.39-0.06,0.56-0.14c0.01-0.02,0.03-0.04,0.04-0.07c0.08-0.05,0.16-0.11,0.24-0.19c0.23-0.21,0.35-0.51,0.35-0.84
	c0-0.34-0.13-0.64-0.41-0.92l0-0.04c-0.23-0.19-0.49-0.26-0.79-0.29c-0.35-0.03-0.71-0.05-1.05-0.09c-0.33-0.08-0.69-0.09-1.03-0.11
	c-0.78-0.04-1.55-0.04-2.33-0.06c-0.58-0.11-1.21-0.08-1.79-0.1c-1.05-0.02-2.09-0.04-3.14-0.06c-1.89-0.05-3.77-0.06-5.66-0.08
	c-2.6-0.02-5.19-0.02-7.79-0.02c-1.73,0-3.46,0-5.18-0.01c-8.92-0.04-17.84-0.06-26.76-0.06C695.71,638.89,672.7,638.97,649.7,639
	L649.7,639L649.7,639z"/>
<path class="st0" d="M773.84,438.41c-0.03,0.05-0.05,0.1-0.08,0.15c-0.27,0.49-0.55,0.97-0.85,1.43c-0.25,0.41-0.48,0.84-0.71,1.25
	c-0.16,0.28-0.31,0.57-0.45,0.86c0.01,6.75,0.02,13.49,0.02,20.24c0,11.94,0.01,23.87,0.02,35.81c-0.01,7.55-0.02,15.1-0.02,22.64
	c-0.01,16.28-0.02,32.58-0.01,48.87c0,1.56,0,3.14,0,4.7l0.25-0.01l0.25-0.01h0.58h0.39c0.26-0.01,0.52-0.01,0.78-0.02l0.23,0.04
	l0.01-0.23l0.04-0.18c0-0.27,0-0.54,0-0.81c-0.01-0.2-0.02-0.41-0.05-0.64l0.01-7.38c0-6.34,0-12.68-0.01-19.03
	c0-16.32,0-32.63-0.02-48.95v-4.44l-0.01-4.45l0.02-14.84c0.01-9.9,0.01-19.79,0.01-29.69v-2.28c0,0,0-0.01,0.05-0.05
	c0-1.23,0-2.47,0-3.7C774.13,437.93,773.99,438.18,773.84,438.41L773.84,438.41L773.84,438.41z"/>
<path class="st0" d="M771.74,605.83c0,6.29,0,12.58-0.01,18.87c-0.01,2.87,0,5.73,0.01,8.59c0,1.33,0,2.65,0,3.98
	c0,0.78,0,1.56-0.01,2.34c0,0.49-0.02,0.99,0.02,1.49c-0.01,0.16,0.02,0.32,0.08,0.48c0.05,0.16,0.15,0.31,0.28,0.45
	c0.01,0.01,0.01,0.01,0.02,0.02c0.01,0,0.02,0,0.03-0.01c0,0,0.18,0.11,0.17,0.12c0.12,0.07,0.24,0.12,0.35,0.15
	c0.09,0.02,0.21,0.04,0.31,0.04c0.15,0,0.28-0.02,0.41-0.06c0.13-0.05,0.22-0.11,0.31-0.18c0.11-0.08,0.21-0.19,0.33-0.38
	c0.02-0.01,0.04-0.02,0.06-0.03c0.1-0.19,0.15-0.4,0.15-0.61c0.03-0.42,0.03-0.84,0.02-1.27c-0.01-0.02-0.03-0.03-0.04-0.05
	l-0.01-0.24l-0.01-0.46v-2.83c0-1.81,0-3.62,0.01-5.43v-12.2l0.04-2.97c0-6.14-0.01-12.28-0.01-18.42c-0.06,0-0.12,0.01-0.19,0.01
	h-0.21l-0.38,0.02c-0.15,0-0.28,0-0.42-0.01l-0.37-0.01c-0.28-0.01-0.56-0.01-0.97-0.04C771.74,600.09,771.74,602.97,771.74,605.83
	L771.74,605.83L771.74,605.83z"/>
<path class="st0" d="M572.36,275.12l-13.68,0.01c-6.05-0.01-12.1-0.01-18.15-0.01c-12.1,0-24.2,0.01-36.29,0.03
	c-11.9,0.02-23.8,0.05-35.7,0.09c-15.86,0.05-31.71,0.09-47.57,0.11h-0.47c-4.03-0.04-8.06-0.06-12.09-0.08l-6.76-0.05l-1.59-0.02
	c-0.79-0.01-1.58-0.02-2.37-0.02h-1.34h-1.34h-1.34l-0.44-0.01l-0.44-0.01c-0.21,0-0.36,0.02-0.51,0.06h-1.42l-0.74-0.04
	c-1.07,0-2.14-0.01-3.21-0.02c-0.31-0.01-0.6,0.12-0.81,0.33c-0.09,0.09-0.18,0.21-0.23,0.34c-0.07,0.15-0.11,0.31-0.11,0.48
	c0,0.3,0.12,0.59,0.34,0.81c0.05,0.05,0.1,0.08,0.15,0.12c0.18,0.13,0.41,0.21,0.65,0.21c1.79-0.02,3.57-0.03,5.34-0.02
	c0.12,0.05,0.25,0.07,0.38,0.07c0.27-0.01,0.54-0.01,0.81-0.02c1.27-0.01,2.53,0,3.8,0c3.73,0,7.47-0.05,11.2-0.08
	c3.63-0.02,7.25-0.05,10.87-0.08c0.59-0.01,1.19-0.02,1.78-0.02c3.93,0,7.87,0.01,11.8,0.02c16.58,0.04,33.17,0.08,49.75,0.12
	c34.95,0.11,69.89,0.08,104.84,0.08c74.61-0.01,149.21-0.18,223.81-0.16c35.93,0.02,71.85,0.06,107.78,0.08
	c16.45,0.01,32.9,0,49.35,0c7.1,0,14.21-0.01,21.31-0.02c5.28-0.01,10.56-0.05,15.84-0.08c0.45,0,0.91,0,1.37-0.01l0-0.04l0.37,0.04
	c0.04,0,0.08,0,0.12,0c-0.02-0.07-0.03-0.14-0.04-0.21c-0.02-0.21-0.02-0.4-0.02-0.61c0-0.14,0.01-0.28,0.02-0.41l0.01-0.21
	c0.01-0.21,0.02-0.41,0.09-0.57c0-0.01,0-0.01,0-0.02l-0.69-0.01l-2.19-0.02l-2.94-0.02l-2.94-0.02c-3.45-0.02-6.91-0.03-10.36-0.03
	c-6-0.02-12.01-0.02-18.01-0.02l-12.73,0.01c-5.86,0-11.71,0-17.56-0.01l-18.58-0.01c-17.83,0-35.67,0.02-53.5,0.04l-33.27,0.03
	h-24.11c-41.15,0-82.3-0.04-123.46-0.08l-0.84-0.01c-24.3-0.02-48.6-0.04-72.9-0.05c-9.12-0.01-18.23-0.02-27.35-0.02H572.36
	L572.36,275.12L572.36,275.12z"/>
<path class="st0" d="M1005.94,276.6c0,0.64-0.01,1.27-0.01,1.91c-0.14,0.13-0.21,0.31-0.23,0.51c-0.02,0.27-0.05,0.52-0.05,0.78
	c0,0.3-0.01,0.61-0.01,0.9c0,0.03,0,0.07,0,0.1c-0.11,0.15-0.18,0.35-0.18,0.54c-0.07,0.8-0.05,1.6-0.06,2.41
	c-0.01,1.13-0.03,2.27-0.05,3.4c-0.02,2.65-0.02,5.28-0.03,7.93c-0.03,6-0.03,12-0.05,18c-0.03,6.24-0.06,12.48-0.09,18.72
	c-0.02,3.07-0.04,6.14-0.05,9.22c-0.02,1.5-0.02,2.99-0.03,4.49c-0.01,1.48-0.04,2.97-0.01,4.45c-0.02,0.09-0.01,0.19,0.02,0.28
	c-0.01,0.54-0.02,1.07-0.03,1.6c-0.02,0.71,0,1.43-0.05,2.13c0,0.03,0,0.07-0.01,0.1c0,0.01,0,0.02,0,0.03
	c0.01,0.2,0.07,0.4,0.19,0.56c-0.01,0.87-0.02,1.74-0.03,2.61c-0.05,0.25-0.03,0.51-0.03,0.77c-0.01,0.44,0.37,0.81,0.81,0.81
	c0.34,0,0.68-0.25,0.78-0.57c0.01-0.17,0.01-0.34,0.04-0.56c0-0.15,0-0.29-0.03-0.43c0-0.14,0-0.28,0-0.42
	c-0.01-0.03-0.03-0.05-0.04-0.08c0-0.69,0-1.39,0.02-2.12c0.13-0.17,0.2-0.38,0.18-0.56c-0.02-0.24-0.02-0.48-0.02-0.73l-0.01-0.36
	v-0.7l-0.01-0.71c-0.01-0.47-0.01-0.94,0.01-1.54c0.04-1.01,0.04-2.02,0.04-3.04v-1.13c0.02-1.63,0.02-3.25,0.03-4.88l0.02-4.61
	l0.02-4.61l0.01-0.21c0.04-6.17,0.08-12.34,0.12-18.51l0.08-9l0.08-9l0.03-3.96l0.02-3.96v-1.52l-0.01-1.52l0.01-0.7
	c0.01-0.69,0.01-1.39-0.04-2.07c-0.01-0.21-0.05-0.38-0.17-0.55v-0.39v-0.61c0.01-0.25-0.01-0.49-0.04-0.78
	c0-0.13-0.03-0.31-0.21-0.51l0.05-1.14c0-0.26,0-0.51,0-0.77c0-0.27-0.22-0.49-0.49-0.49
	C1006.16,276.11,1005.94,276.34,1005.94,276.6L1005.94,276.6L1005.94,276.6z"/>
<path class="st0" d="M862.75,358.42c-0.1,0.02-0.2,0.04-0.29,0.06c-0.66,0.28-1.31,0.59-1.96,0.92c-0.38,0.19-0.76,0.39-1.15,0.58
	c-0.37,0.18-0.74,0.36-1.1,0.54c-0.61,0.28-1.24,0.55-1.86,0.84c2.11-0.01,4.21-0.01,6.32-0.02c0.01-0.01,0.01-0.03,0.02-0.04
	c3.66-0.01,7.32-0.02,10.98-0.05c12.33-0.05,24.66-0.1,36.99-0.12l8.63-0.02c8.72-0.02,17.44-0.03,26.16-0.06l9.41-0.02l9.3-0.02
	l12.4-0.02h3.17c3.7,0,7.41,0,11.1-0.07c1.57-0.03,3.14-0.04,4.71-0.05l1.18-0.02l1.19-0.01l3.4-0.02h0.73
	c0.97,0,1.94-0.01,2.91-0.05c0.24,0,0.46-0.08,0.71-0.25c0.06-0.06,0.11-0.12,0.15-0.2c0.09-0.16,0.14-0.34,0.14-0.51
	c0-0.18-0.05-0.35-0.14-0.51c-0.18-0.31-0.51-0.48-0.87-0.5c-1.31-0.06-2.62-0.05-3.93-0.05c-1.36-0.01-2.73-0.02-4.09-0.03
	c-2.76-0.02-5.51-0.05-8.27-0.09c-2.84-0.03-5.7-0.02-8.54-0.03c-3.07-0.01-6.16-0.02-9.23-0.02c-12.09-0.02-24.18-0.05-36.27-0.08
	c-11.68-0.03-23.35-0.02-35.03-0.06c-12.08-0.05-24.15-0.1-36.23-0.14C863.18,358.33,862.97,358.38,862.75,358.42L862.75,358.42
	L862.75,358.42z"/>
<path class="st0" d="M817.66,361.37c0,0,0.01,0,0.01,0c0.07-0.05,0.14-0.11,0.21-0.16C817.8,361.25,817.73,361.31,817.66,361.37
	L817.66,361.37L817.66,361.37z"/>
<path class="st0" d="M583.6,571.6c-23.65,0.02-47.3,0.12-70.96,0.2c-22.16,0.08-44.33,0.1-66.49,0.22
	c-9.97,0.06-19.95,0.08-29.92,0.15c-10.56,0.08-21.12,0.11-31.68,0.11c-0.51,0-0.93,0.42-0.93,0.93c0,0.3,0.15,0.57,0.38,0.74
	l0.08,0.01l0.26,0.02c0.51,0.04,1.01,0.06,1.52,0.08l0.37,0.01l0.54,0.01l0.31,0.02c10.13,0.01,20.27,0.05,30.4,0.11
	c6.65,0.05,13.31,0.08,19.96,0.1l11.94,0.05c11.85,0.07,23.7,0.09,35.61,0.11c6.52,0.02,13.03,0.04,19.55,0.07l15.69,0.05
	l18.98,0.06c17.43,0.06,34.85,0.11,52.28,0.12c11.35,0.02,22.69,0.03,34.05,0.05c4.08,0.01,8.17,0.02,12.24,0.02
	c7.63,0,15.26-0.02,22.89-0.03c15.71-0.02,31.43-0.07,47.27-0.11l15.82-0.05l12.34-0.03l9.25-0.02l9.25-0.02h4.41l4.42-0.01h2.22
	c1.18,0,2.37,0,3.55,0.01l0.46,0.01l0.44,0.04c0.1-0.17,0.28-0.25,0.57-0.25h0.37l0.23,0.01h0.29v0.02l0.04-0.01
	c0.03-0.02,0.06-0.04,0.09-0.05c0.62-0.03,1.24-0.06,1.86-0.08c0.29-0.01,0.56-0.14,0.75-0.34l0.01-0.07l-0.01-0.22l-0.01-0.23
	c-0.01-0.28-0.02-0.57-0.05-0.89v-0.05c-0.19-0.17-0.43-0.27-0.7-0.28c-0.62-0.03-1.24-0.06-1.86-0.09
	c-0.24-0.17-0.48-0.27-0.8-0.27c-0.08,0-0.17,0-0.25-0.01c-0.48-0.02-0.96,0-1.44,0c-1.34,0.01-2.68,0.01-4.03,0.01
	c-3.93,0.01-7.85-0.01-11.78-0.01c-10.89-0.02-21.77-0.05-32.65-0.08c-22.62-0.07-45.26-0.14-67.89-0.17
	c-4.45-0.01-8.91-0.02-13.36-0.02C620.84,571.53,602.22,571.58,583.6,571.6L583.6,571.6L583.6,571.6z"/>
<path class="st0" d="M390.49,598.73c0,0.49,0.41,0.9,0.9,0.9c0.49,0,0.9-0.41,0.9-0.9s-0.41-0.9-0.9-0.9
	C390.9,597.83,390.49,598.24,390.49,598.73L390.49,598.73L390.49,598.73z"/>
<path class="st0" d="M725.33,597.2l-4.76,0.01l-16.88,0.02l-16.88,0.02h-9.59c-7.99,0-15.99,0.01-23.97,0.03l-27.62,0.05
	c-13.7,0.03-27.41,0.06-41.11,0.1c-13.4,0.03-26.81,0.08-40.21,0.12l-13.48,0.05l-17.64,0.07c-6.84,0.02-13.69,0.03-20.52,0.04
	l-6.88,0.02c-11.43,0.02-22.85,0.03-34.29,0.08l-10.18,0.04c-6.78,0.02-13.55,0.05-20.33,0.08c-0.4-0.01-0.81-0.03-1.21-0.04
	c-10.31,0.03-20.63,0.05-30.94,0.05c-0.43,0-0.79,0.36-0.79,0.79c0,0.43,0.36,0.79,0.79,0.79c23.1,0,46.2,0.12,69.3,0.21
	c11.59,0.05,23.18,0.06,34.77,0.07c11.78,0.01,23.55,0.05,35.33,0.09c23.71,0.08,47.43,0.17,71.13,0.23
	c11.44,0.03,22.89,0.05,34.32,0.08c11.21,0.02,22.42,0.06,33.63,0.07c19.88,0.01,39.76,0.02,59.64,0.04
	c8.59,0.02,17.19-0.03,25.78-0.03c3.75,0,7.5,0,11.25,0.01c2.11,0,4.22,0.01,6.33,0.02c0.97,0,1.92,0.01,2.89,0.01
	c0.42,0,0.84,0.01,1.27,0c-0.08-0.09-0.13-0.2-0.13-0.3c-0.02-0.21-0.01-0.44,0-0.67l0.01-0.21l0.02-0.62l0.02-0.64
	c0-0.22,0-0.44,0.05-0.62c0,0,0,0,0-0.01c-0.11,0-0.21,0-0.35,0.02h-0.21l-0.38,0.02c-0.15,0-0.28,0-0.42-0.01l-0.37-0.01
	c-0.31-0.01-0.64-0.02-1.13-0.05h-1.26c-2.43,0.02-4.86,0.02-7.29,0.03h-6.26h-6.27h-2.42h-2.41c-3.2,0-6.42-0.01-9.62-0.02
	c-1.98-0.02-3.96-0.02-5.95-0.02L725.33,597.2L725.33,597.2L725.33,597.2z"/>
<path class="st0" d="M383.52,597.75c0.01,0.32-0.01,0.64-0.04,0.96v0.4c-0.02,0.21-0.03,0.41,0,0.63c1.13-0.01,2.25-0.01,3.37-0.01
	c3.91-0.01,7.82-0.01,11.73-0.01c3.86,0,7.71,0.01,11.57-0.01c3.64-0.01,7.28,0,10.92-0.13c0.46-0.02,0.84-0.38,0.84-0.84
	c0-0.39-0.26-0.7-0.62-0.81c-0.1,0-0.21,0-0.31,0c-3.08-0.11-6.22-0.11-9.25-0.12h-0.62h-0.64c-1.92-0.01-3.83-0.02-5.74-0.02h-2.88
	l-2.88,0.01c-3.92,0-7.84,0-11.78-0.02l-0.07-0.04C385.91,597.75,384.72,597.75,383.52,597.75L383.52,597.75L383.52,597.75z"/>
<path class="st0" d="M860.91,359.41c-0.04,0.02-0.08,0.04-0.13,0.05c-0.05,0.02-0.12,0.05-0.17,0.07c-0.54,0.22-1.09,0.44-1.63,0.67
	c-0.64,0.27-1.25,0.6-1.86,0.91c-1.46,0.74-2.92,1.51-4.36,2.29c-0.5,0.28-1,0.54-1.49,0.82c-0.04,0.02-0.07,0.05-0.1,0.07
	c-0.13,0.09-0.27,0.18-0.41,0.21c-2.03,1.13-4.03,2.3-6.02,3.5c-5.25,3.17-10.36,6.59-15.31,10.21
	c-9.78,7.14-18.94,15.1-27.39,23.76c-4.86,4.98-9.48,10.2-13.8,15.66c-0.07,0.08-0.13,0.16-0.18,0.25c-1.44,1.8-2.86,3.64-4.23,5.5
	c-0.13,0.18-0.19,0.41-0.21,0.64c-1.1,1.47-2.17,2.96-3.22,4.47c-0.05,0.06-0.09,0.12-0.13,0.18c-0.03,0.04-0.05,0.08-0.08,0.11
	v0.01c-0.04,0.05-0.08,0.11-0.11,0.16c-0.03,0.04-0.06,0.08-0.09,0.12c-0.18,0.27-0.37,0.54-0.55,0.8c-0.04,0.05-0.07,0.08-0.1,0.13
	c-0.13,0.19-0.27,0.4-0.41,0.6c-0.91,1.36-1.82,2.74-2.71,4.12c-0.08,0.12-0.13,0.26-0.16,0.41c-0.01,0.05-0.02,0.08-0.02,0.12
	c-0.28,0.44-0.56,0.88-0.84,1.32c-0.02,0.04-0.05,0.07-0.08,0.11c-0.26,0.42-0.52,0.85-0.78,1.27c-0.1,0.15-0.19,0.31-0.29,0.47
	c-0.02,0.04-0.04,0.08-0.06,0.11c-0.18,0.29-0.35,0.58-0.53,0.87c-0.23,0.38-0.2,0.86,0.02,1.22c-0.02,0.03-0.03,0.05-0.05,0.08
	c-0.15,0.26-0.06,0.61,0.21,0.77c0.19,0.11,0.44,0.09,0.61-0.03v-0.04c0-0.01,0-0.01,0.17-0.16c0.01-0.01,0.01-0.02,0.02-0.03
	c0.01,0,0.01,0,0.02,0c0.01-0.01,0.03-0.02,0.05-0.04c0.09,0,0.19-0.01,0.3-0.03c0.3-0.09,0.54-0.28,0.71-0.54l0.27-0.45l0.33-0.53
	l0.18-0.28l0.31-0.51l0.29-0.48l0.35-0.57l0.81-1.28c0.2-0.13,0.35-0.28,0.44-0.45c0.85-1.32,1.71-2.62,2.65-4.01l0.18-0.28
	l0.21-0.27l0.1-0.18l0.69-1.01l0.18-0.25c1.05-1.52,2.12-3.04,3.24-4.52c0.31-0.13,0.55-0.35,0.72-0.64c0.6-0.8,1.2-1.59,1.79-2.35
	c0.71-0.9,1.42-1.82,2.17-2.75c5.19-6.43,10.8-12.63,16.68-18.42c6.24-6.13,12.9-11.95,19.8-17.3c5.5-4.21,11.16-8.14,16.84-11.68
	c2.88-1.8,5.91-3.58,9.02-5.3c1.54-0.86,3.11-1.69,4.67-2.51c0.74-0.39,1.49-0.77,2.25-1.15c0.51-0.26,1-0.54,1.5-0.83l0.25-0.14
	l0.66-0.38c0.29-0.15,0.53-0.43,0.68-0.82c0,0,0.01,0,0.01,0c0.02-0.06,0.03-0.13,0.04-0.19c0-0.02,0.01-0.02,0.01-0.03
	c0-0.02,0-0.02,0-0.04c0.01-0.01,0.01-0.02,0.01-0.03c0-0.02,0-0.03,0-0.04s0-0.02,0.01-0.02c0.01-0.17-0.01-0.34-0.05-0.49
	c-0.1-0.38-0.35-0.7-0.69-0.9c-0.21-0.12-0.5-0.21-0.77-0.21C861.15,359.34,861.02,359.36,860.91,359.41L860.91,359.41
	L860.91,359.41z"/>
<path d="M1005.65,357.23c-0.02,0.26-0.02,0.53-0.02,0.79c-0.01,0.21,0.02,0.41,0.03,0.61c0.02,0.27,0.03,0.53,0.05,0.8
	c0.02,0.27,0.21,0.49,0.49,0.49c0.26,0,0.51-0.22,0.49-0.49c-0.02-0.27-0.03-0.53-0.05-0.8c-0.02-0.2-0.02-0.4-0.03-0.61
	c-0.01-0.26,0.01-0.53,0.02-0.79c0.01-0.27-0.24-0.49-0.49-0.49C1005.87,356.74,1005.66,356.96,1005.65,357.23L1005.65,357.23
	L1005.65,357.23z"/>
<path d="M1005.2,357.02c-0.1,0.54-0.16,1.08-0.17,1.63c-0.01,0.23-0.01,0.46,0.02,0.68c0.03,0.25,0.05,0.51,0.18,0.71
	c0.15,0.23,0.37,0.35,0.6,0.37c0.02-0.01,0.04-0.03,0.05-0.04c0.25,0,0.48-0.12,0.63-0.34c0.17-0.27,0.18-0.63,0.19-1.01
	c0.02-0.19,0.02-0.38,0.03-0.58c0.01-0.27,0.02-0.54,0.07-0.97c0.04-0.2,0.06-0.41-0.11-0.69c0-0.02,0-0.04,0-0.06
	c-0.11-0.15-0.27-0.25-0.45-0.3c-0.07-0.02-0.14-0.02-0.21-0.02C1005.67,356.4,1005.27,356.64,1005.2,357.02L1005.2,357.02
	L1005.2,357.02z"/>
<path class="st1" d="M912.14,242.87c-30.87,0.08-61.73,0.15-92.6,0.15l-4.47-0.04c-0.1,0.29-0.16,0.46-0.32,0.69
	c-0.42,0-0.88,0.04-1.33,0.08c-0.48,0.04-0.97,0.08-1.44,0.13l-0.64,0.05l-0.48,0.05l-0.53,0.05l-0.44,0.05
	c-0.19,0.02-0.28,0.02-0.38,0.04h-0.28c-0.64,0.01-1.27,0.06-1.89,0.13l-0.45,0.06l-0.44,0.05l-0.38,0.05l-0.81,0.01h-0.79
	c-8.58,0-17.1-0.03-25.59-0.06l-4.18-0.02l-15.61-0.07l-26.36-0.11l-26.3-0.11c-31.45-0.14-63.5-0.15-94.52-0.17h-0.39h-0.4h-5.55
	l-5.57-0.01l-9.62-0.01h-4.71c-20.19,0-40.37,0.02-60.54,0.05l-12.11,0.02l-12.27,0.02h-0.67h-0.74h-0.81
	c-15.25,0.02-30.41,0.05-45.6,0.06c-10.9,0.02-21.8,0.02-32.7,0.02c-12.93,0-25.87-0.01-38.79-0.02l-25.78-0.05h-0.02
	c-0.05,2.58-0.06,5.12-0.08,7.67c-0.02,2.53-0.04,5.06-0.05,7.68c-0.03,8.06-0.08,16.12-0.13,24.17l-0.04,6.03l-0.08,17.48
	l-0.02,4.03c-0.08,14.48-0.15,28.97-0.31,43.45c-0.18,18.18-0.27,36.36-0.37,54.69c-0.04,8.68-0.08,17.36-0.15,26.04
	c-0.06,10.86-0.14,21.72-0.21,32.62v0.85v0.34l-0.01,0.64l-0.03,6.65l-0.03,6.66l-0.13,27.05l-0.02,2.78
	c-0.09,17.21-0.18,34.28-0.25,51.33l-0.08,18.82l-0.08,18.81l-0.01,0.43c-0.02,5.8-0.05,11.41-0.08,17.01l-0.01,0.2
	c-0.02,3.37-0.03,6.72-0.06,10.06l-0.02,2c-0.01,1-0.02,1.99-0.04,2.99v0.37v0.22c-0.02,0.72-0.03,1.44-0.11,2.33
	c-0.02,4.82-0.05,9.61-0.02,14.4c0.02,2.9,0,5.79-0.02,8.69l-0.03,4.74c0,0.99,0,1.99-0.01,2.98l-0.02,1.49v0.98l-0.02,1.28l0,0.01
	l15.54,0.02c21.97-0.05,43.93-0.15,65.93-0.25l0.2-0.01h0.25l3.14-0.01c29.8-0.13,59.84-0.18,95.77-0.21l1.18-0.01h1.1l37.1-0.05
	h3.3c9.32-0.02,18.63-0.04,27.95-0.06h0.26c14.11-0.04,28.23-0.07,42.34-0.08l6.85-0.01c12.62,0,25.24,0.02,37.97,0.05h0.37
	l18.1,0.04h3.86h3.86c2.58,0,5.15,0,7.73-0.02c2.23-0.02,4.45-0.02,6.75-0.03l1.53-0.02l0.77-0.02c0.51-0.01,1.03-0.01,1.53-0.01
	c0.6,0,1.2,0.01,1.8,0.03c0.71,0.02,1.43,0.03,2.15,0.03c0.58,0,1.17-0.01,1.75-0.02l0.86-0.01l5.91-0.05l2.79-0.02
	c1.5,0,3.01,0.01,4.52,0.02l3.96,0.01h1.64l7.84-0.02l4.34-0.02c2.9-0.01,5.8-0.01,8.69-0.01c2.1,0,4.2,0.01,6.38,0.02h0.22
	l3.61,0.02l3.63,0.02l2.58,0.01c1.72,0.01,3.43,0.02,5.14,0.06c0.44,0.01,0.88,0.02,1.32,0.05l1.05,0.05l1.23,0.03l1.17,0.07l0.03,0
	c0.05-0.97,0.05-1.89,0.05-2.81v-1.38v-1.59c0.01-1.42,0.02-2.82,0.02-4.22c-0.02-3.52-0.03-7.05-0.04-10.6
	c-0.02-7.66-0.02-15.26-0.02-22.87c0-7.95,0-15.9,0.01-23.84c0.01-4.17-0.02-8.34-0.04-12.5l-0.01-2.5l-0.03-6.01
	c-0.05-12.1-0.06-24.2-0.07-36.37l-0.01-10.93c0-5.4-0.01-10.79-0.02-16.36l-0.01-0.6l-0.01-5.65l-0.01-1.25l-0.01-1.23
	c-0.01-2.48-0.02-4.97-0.07-7.45l-0.11-4.81c-0.05-2.01-0.09-4.03-0.12-6.04c-0.15-7.75-0.22-15.78-0.23-25.28l0.1-0.41l0.14-0.54
	l0.18-0.68c0.09-0.35,0.19-0.69,0.3-1.03l0.08-0.28l0.11-0.37c0.31-1,0.62-2.05,1.06-3.01l0.67-1.43l0.41-0.86
	c0.18-0.41,0.39-0.81,0.68-1.35l0.21-0.4l0.48-0.91l0.2-0.39l0.4-0.78c0.17-0.31,0.35-0.63,0.53-0.94l0.26-0.41l0.11-0.18l0.3-0.5
	c0.08-0.13,0.16-0.26,0.29-0.37c0,0,0,0,0.01-0.01c0.02-0.03,0.04-0.06,0.06-0.09v0.05c0,0,0,0,0,0c0.01-0.02,0.02-0.02,0.03-0.03
	l0,0.01c0.01,0,0.01-0.01,0.02-0.01l-0.02,0.12l-0.01,0.11l0.16-0.19c1.49-2.46,3.06-4.86,4.77-7.34l0.65-0.94
	c1.68-2.37,3.34-4.56,5.07-6.7l0.17-0.22c0.48-0.61,0.98-1.23,1.5-1.84c1.82-2.2,3.78-4.41,5.8-6.58
	c5.11-5.41,10.7-10.49,16.61-15.08l0.57-0.44c7.83-6.03,16.28-11.25,25.11-15.52c4.1-1.97,8.39-3.8,12.74-5.44l-0.12-0.04h-0.21
	c0.08-0.02,0.16-0.03,0.24-0.05c-0.02-0.02-0.04-0.02-0.03-0.02c0.01,0,0.01,0,0.01,0l-0.02-0.02c0.21-0.05,0.38-0.12,0.73-0.27
	l0.46-0.21l1.1-0.44l0.46-0.18l0.27-0.11c0.47-0.18,0.94-0.36,1.4-0.54l0.48-0.19l0.62-0.25l0.42-0.17c1.71-0.68,3.6-1.43,5.45-2.08
	l0.51-0.15c0.34-0.11,0.74-0.24,1.13-0.35l0.37-0.1l1.63-0.44c0.64-0.17,1.27-0.36,1.9-0.56c0.28-0.08,0.54-0.17,0.84-0.28
	c0.09,0,0.18-0.02,0.41-0.06c0.58-0.11,1.1-0.21,1.65-0.33c9.38,0.04,17.76,0.12,25.61,0.22c8.38,0.11,16.75,0.18,25.13,0.23
	c8.36,0.05,16.71,0.13,25.06,0.21c17.96,0.19,35.17,0.25,51.09,0.3h0.74l0.67,0.03l0.01,0l0.06-2.99l0.03-3.4
	c0.02-3.11,0.05-6.23,0.06-9.33l0.03-4.72l0.03-4.72c0.01-2.61,0.03-5.21,0.05-7.87v-0.3v-0.36c0.03-3.45,0.05-6.88,0.07-10.3v-0.65
	l0.01-0.6v-0.24l0.01-0.24c0.02-5.61,0.04-11.16,0.05-16.71l-0.02-15.03c-0.02-5.84-0.03-11.69-0.04-17.53l-0.01-8.77l-0.01-0.74
	c-0.02-1.04-0.04-1.98-0.05-2.91l-0.03-3.2c-0.02-2.11-0.03-4.22-0.04-6.33c-0.04-5.64-0.11-11.28-0.18-16.98l-0.01-0.66l-0.04-2.65
	l-0.02-1.06c-0.02-1.41-0.04-2.82-0.04-4.23l0.06-0.96l0-0.02l-22.09-0.05c-11.32,0-22.63-0.01-33.95-0.02
	c-11.32-0.02-22.62-0.02-33.94-0.02C934.77,242.83,923.46,242.84,912.14,242.87L912.14,242.87L912.14,242.87z M625.52,574.82
	c-11.35-0.02-22.7-0.04-34.05-0.05c-17.43-0.01-34.85-0.06-52.28-0.12l-18.98-0.06l-15.69-0.05c-6.52-0.03-13.03-0.05-19.55-0.07
	c-11.91-0.02-23.76-0.05-35.61-0.12l-11.94-0.05c-6.65-0.02-13.31-0.05-19.96-0.1c-10.13-0.07-20.27-0.11-30.4-0.11l-0.3-0.02
	l-0.55-0.01l-0.37-0.01c-0.51-0.02-1-0.04-1.51-0.08l-0.26-0.02l-0.52-0.05c0.08-9.81,0.13-19.67,0.15-29.54
	c0.02-15.03,0.07-30.07,0.12-45.1l0.08-22.67c0.02-7.79,0.06-15.58,0.1-23.36l0.06-11.7l0.05-10.2l0.05-10.2l0.06-13.53l0.1-20.29
	c0.07-15.23,0.15-30.45,0.25-45.67c0.05-7.11,0.08-14.23,0.12-21.34l0.06-10.76c0.03-5.24,0.05-10.48,0.08-15.72l0.01-2.94
	c0.01-1.4,0.02-2.81,0.03-4.21l0.02-1.65l0.02-1.65v-0.41c0-0.65,0-1.27,0.11-1.91c0.09-0.31,0.25-0.59,0.48-0.81
	c0.07-1.7,0.08-3.33,0.08-4.96l0.36-0.12c0.02,0,0.02,0,0.04,0c0.48,0,0.96-0.02,1.44-0.05c0.24-0.03,0.48-0.05,0.72-0.07l2.71,0.17
	h1.42c0.15-0.05,0.3-0.06,0.51-0.06l0.44,0.01l0.44,0.01h1.34h1.34h1.34c0.79,0,1.58,0,2.37,0.01l1.59,0.02l6.76,0.05
	c4.03,0.02,8.06,0.05,12.09,0.08h0.47c15.86-0.02,31.71-0.06,47.57-0.11c11.9-0.05,23.8-0.08,35.7-0.09
	c12.1-0.02,24.2-0.03,36.29-0.03c6.05,0,12.1,0,18.15,0.01l13.68-0.01h13.67c9.12,0,18.23,0.01,27.35,0.02
	c24.3,0.01,48.6,0.03,72.9,0.05h0.84c41.16,0.05,82.31,0.08,123.46,0.08h24.11l33.27-0.03c17.83-0.02,35.67-0.05,53.5-0.05
	l18.58,0.01c5.85,0.02,11.71,0.02,17.56,0.02l12.73-0.02c6,0,12.01,0,18.01,0.02c3.45,0,6.91,0.01,10.36,0.03l2.94,0.02l2.94,0.02
	l2.19,0.01l0.7,0.01c-0.06,0.18-0.08,0.38-0.08,0.6l-0.01,0.21c-0.01,0.14-0.02,0.28-0.02,0.41c0,0.21,0.01,0.4,0.02,0.61
	c0.01,0.07,0.02,0.15,0.04,0.22l-0.5-0.05l-0.05,1.2c0.18,0.19,0.21,0.38,0.21,0.51c0.03,0.29,0.05,0.53,0.04,0.78v0.61v0.39
	c0.11,0.18,0.16,0.35,0.17,0.55c0.05,0.68,0.05,1.38,0.04,2.07l-0.01,0.7l0.01,1.52v1.52l-0.02,3.96l-0.03,3.96l-0.08,9l-0.08,9
	c-0.05,6.17-0.08,12.34-0.12,18.51v0.21l-0.02,4.61l-0.02,4.61c-0.01,1.63-0.02,3.25-0.03,4.88v1.13c0,1.01,0,2.02-0.04,3.04
	c-0.02,0.6-0.02,1.07-0.01,1.54l0.01,0.71v0.7l0.01,0.36c0,0.25,0,0.49,0.02,0.73c0.02,0.18-0.05,0.39-0.19,0.56
	c-0.01,0.73-0.01,1.43-0.01,2.12c0.16,0.28,0.15,0.49,0.11,0.68c-0.05,0.43-0.06,0.71-0.07,0.97c-0.01,0.2-0.02,0.39-0.03,0.58
	c-0.02,0.38-0.03,0.74-0.2,1.01c-0.14,0.21-0.37,0.34-0.63,0.34c-0.34,0.28-0.61,0.39-0.9,0.4c-0.97,0.05-1.94,0.05-2.91,0.05h-0.73
	l-3.4,0.02l-1.19,0.01l-1.18,0.02c-1.56,0.01-3.14,0.02-4.71,0.05c-3.7,0.07-7.4,0.07-11.1,0.07h-3.17l-12.4,0.02l-9.3,0.02
	l-9.41,0.02c-8.72,0.03-17.43,0.05-26.16,0.06l-8.63,0.02c-12.33,0.02-24.66,0.07-36.99,0.12c-3.66,0.02-7.32,0.04-10.98,0.05
	c-0.15,0.39-0.39,0.67-0.68,0.82l-0.66,0.38l-0.25,0.14c-0.49,0.28-0.99,0.57-1.49,0.83c-0.75,0.38-1.5,0.76-2.25,1.15
	c-1.56,0.81-3.13,1.65-4.67,2.51c-3.11,1.71-6.14,3.5-9.02,5.3c-5.68,3.54-11.35,7.48-16.84,11.68c-6.9,5.34-13.56,11.16-19.8,17.3
	c-5.87,5.79-11.48,11.99-16.68,18.42c-0.75,0.94-1.46,1.85-2.17,2.75c-0.59,0.77-1.2,1.56-1.79,2.35c-0.16,0.29-0.41,0.51-0.72,0.64
	c-1.11,1.49-2.19,3-3.24,4.52l-0.18,0.25l-0.69,1.01l-0.1,0.19l-0.21,0.26l-0.18,0.28c-0.94,1.39-1.8,2.69-2.65,4.01
	c-0.09,0.17-0.25,0.32-0.44,0.45l-0.81,1.28l-0.35,0.57l-0.29,0.48l-0.31,0.51l-0.18,0.28l-0.33,0.53l-0.27,0.45
	c-0.17,0.26-0.4,0.44-0.7,0.53c-0.11,0.03-0.21,0.04-0.31,0.04c-0.25,0.21-0.25,0.21-0.25,0.23v2.28c0,9.9,0,19.79-0.01,29.69
	l-0.02,14.84l0.01,4.45v4.44c0.02,16.32,0.02,32.63,0.02,48.95c0.01,6.35,0.01,12.69,0.01,19.03l-0.01,7.38
	c0.04,0.32,0.05,0.61,0.05,0.89l0.01,0.23l0.01,0.22l-0.07,0.29v0.23l-0.23-0.04c-0.27,0.02-0.53,0.02-0.79,0.02h-0.39h-0.58
	l-0.25,0.01l-0.25,0.01l-0.21,0.03v-0.02h-0.29l-0.23-0.01h-0.37c-0.29,0-0.47,0.08-0.57,0.25l-0.44-0.04l-0.47-0.01
	c-1.18-0.01-2.37-0.01-3.55-0.01h-2.22l-4.42,0.01h-4.41l-9.25,0.02l-9.25,0.02l-12.34,0.03l-15.82,0.05
	c-15.85,0.05-31.56,0.09-47.27,0.12c-7.63,0.02-15.26,0.03-22.89,0.03C633.68,574.84,629.6,574.83,625.52,574.82L625.52,574.82
	L625.52,574.82z M441.31,597.85l10.18-0.04c11.43-0.05,22.85-0.07,34.29-0.08l6.88-0.02c6.84-0.01,13.69-0.02,20.52-0.04l17.64-0.07
	l13.48-0.05c13.41-0.05,26.81-0.09,40.21-0.12c13.7-0.04,27.41-0.07,41.11-0.1l27.62-0.05c7.99-0.02,15.99-0.03,23.97-0.03h9.59
	l16.88-0.02l16.88-0.02l4.76-0.01l4.76-0.01c1.99,0,3.97,0.01,5.95,0.02c3.2,0.02,6.42,0.02,9.62,0.02h2.41h2.42h6.27h6.26
	c2.43-0.01,4.86-0.02,7.29-0.03h1.26c0.51,0.03,0.83,0.04,1.13,0.05l0.37,0.02c0.15,0.01,0.28,0.01,0.42,0.01l0.38-0.02h0.21
	c0.14-0.02,0.25-0.02,0.35-0.02c-0.05,0.18-0.05,0.41-0.05,0.63l-0.02,0.64l-0.02,0.62l-0.01,0.21c-0.01,0.22-0.02,0.45,0,0.67
	c0.01,0.11,0.06,0.23,0.16,0.33l-0.27,18.29v12.2c-0.01,1.81-0.01,3.62-0.01,5.43v2.83l0.01,0.46l0.01,0.24
	c0.27,0.28,0.41,0.58,0.41,0.92c0,0.33-0.13,0.63-0.35,0.84c-0.08,0.08-0.15,0.15-0.25,0.19c-0.11,0.18-0.21,0.29-0.33,0.38
	c-0.09,0.07-0.18,0.12-0.31,0.18c-0.12,0.04-0.26,0.06-0.41,0.06c-0.11,0-0.22-0.02-0.31-0.05c-0.11-0.02-0.21-0.08-0.34-0.15
	c0.01-0.02-0.17-0.12-0.18-0.12c-0.33,0.06-0.67,0.08-1.01,0.08h-0.21l-0.64,0.02c-0.43,0.01-0.86,0.02-1.29,0.03
	c-0.24,0.04-0.48,0.05-0.73,0.06c-0.41,0.02-0.77,0.03-1.13,0.04l-0.56,0.01l-1.42,0.03l-1.41,0.03c-1.43,0.03-2.84,0.05-4.27,0.05
	l-1.05,0.01c-2.38,0.02-4.77,0.02-7.15,0.02h-5.1c-5.31,0.03-10.61,0.04-15.92,0.05l-9.55,0.02l-5.63,0.01
	c-6,0-11.99-0.02-17.98-0.03l-9.45-0.03h-0.39c-11.16-0.02-22.33-0.05-33.48-0.06c-13.2-0.02-26.4-0.02-39.61-0.02l-13.21-0.01
	c-28.01,0-55.44-0.01-82.94-0.11l-35.43-0.12l-35.03-0.12l-5.44-0.02c-7.28-0.03-14.57-0.05-21.86-0.05h-5.44
	c-4.97,0.02-9.94,0.02-14.9,0.02l-3.95,0.01l-3.95,0.01l-1.66,0.01l-1.66,0.01c-0.45,0-0.91,0-1.36,0.01l-0.31,0.01l-0.34,0.01
	c-0.13,0-0.26-0.01-0.39-0.02c-0.27,0-0.49-0.05-0.69-0.18c-0.1-0.08-0.16-0.12-0.22-0.18c-0.23-0.23-0.37-0.57-0.37-0.9
	c-0.44-0.1-0.74-0.25-0.96-0.46c-0.2-0.2-0.4-0.57-0.36-0.87c0.02-0.83,0.02-1.66,0.02-2.48c-0.27-0.31-0.41-0.63-0.44-0.95v-0.2
	c0.02-0.43,0.03-0.85,0.03-1.28l-0.01-0.45v-0.44c0.01-0.8,0.02-1.59,0.02-2.38l0.02-2.54l0.02-2.55c0.02-3.81,0.03-7.62,0.04-11.43
	l0.02-7.46l0.03-7.49c-0.03-0.21-0.02-0.42,0-0.63v-0.4c0.05-0.39,0.05-0.78,0.04-1.17c0.46,0.08,0.84,0.08,1.2,0.09l1.5,0.02h0.49
	h0.23l0.26,0.14c3.93,0.02,7.86,0.02,11.78,0.02l2.88-0.01h2.88c1.92,0,3.83,0,5.74,0.02h0.64h0.62c3.04,0.01,6.17,0.01,9.25,0.12
	C427.75,597.91,434.53,597.88,441.31,597.85L441.31,597.85L441.31,597.85z"/>
<path class="st1" d="M1086.06,646.59l-0.31,0.05c-3.2,0.49-6.33,1.36-9.31,2.57l-0.54,0.24c-2.68,1.2-5.27,2.74-7.71,4.58
	c-2.38,1.86-4.58,3.98-6.57,6.3l-0.18,0.21c-0.22,0.26-0.44,0.52-0.65,0.8c-0.71,0.91-1.28,1.73-1.8,2.54
	c-0.08,0.09-0.13,0.17-0.18,0.2c-1,1.69-1.88,3.43-2.63,5.15l-0.11,0.29c-1.17,3-1.99,6.07-2.42,9.14c-0.4,3.2-0.4,6.47-0.01,9.71
	l0.04,0.22c0.46,3.26,1.33,6.49,2.6,9.58c1.28,2.95,2.92,5.78,4.9,8.4c1.99,2.53,4.32,4.85,6.91,6.88c2.51,1.91,5.31,3.55,8.33,4.88
	c3.12,1.27,6.41,2.17,9.78,2.66c1.61,0.19,3.23,0.28,4.82,0.28c1.55,0,3.22-0.1,4.98-0.3c3.39-0.5,6.67-1.4,9.76-2.65
	c3.17-1.4,6.01-3.09,8.46-5.03l1.09-0.92c1.5-1.23,2.91-2.61,4.3-4.21l0.34-0.39l0.29-0.35l0.33-0.39l0.25-0.32
	c1.99-2.6,3.66-5.47,4.99-8.53l0.11-0.29c1.2-3.01,2.03-6.13,2.48-9.25c0.21-1.62,0.31-3.25,0.31-4.86c0-1.71-0.09-3.35-0.29-4.87
	l-0.03-0.24c-0.51-3.35-1.42-6.62-2.71-9.74c-1.29-2.91-2.88-5.62-4.72-8.06c-1.94-2.47-4.19-4.72-6.66-6.68
	c-2.63-1.99-5.47-3.65-8.43-4.93c-3.22-1.3-6.36-2.16-9.58-2.64c-1.75-0.22-3.5-0.33-5.23-0.33
	C1089.41,646.28,1087.72,646.38,1086.06,646.59L1086.06,646.59L1086.06,646.59z M1088.45,701.89c-1.42-0.21-2.77-0.56-4.03-1.07
	c-1.7-0.72-2.93-1.4-3.99-2.18c-1.35-1.02-2.3-1.88-3.07-2.8c-1.1-1.3-1.88-2.45-2.45-3.63c-0.71-1.46-1.18-2.74-1.43-3.93
	c-0.38-1.63-0.55-3.14-0.51-4.49c0.05-1.53,0.23-2.88,0.56-4.14c0.63-2.45,1.76-4.77,3.27-6.71c0.21-0.28,0.44-0.54,0.67-0.81
	c1.86-2.11,4.2-3.77,6.79-4.81c1.34-0.54,2.71-0.91,4.08-1.11c0.88-0.14,1.76-0.21,2.69-0.21c0.44,0,0.89,0.02,1.33,0.06
	c1.63,0.14,3.03,0.42,4.3,0.87c1.47,0.53,2.63,1.07,3.64,1.71c1.46,0.92,2.68,1.91,3.64,2.94c0.96,1.03,1.73,2.02,2.31,2.96
	c1.46,2.39,2.36,5.07,2.61,7.74c0.15,1.58,0.09,3.17-0.18,4.72c-0.02,0.24-0.06,0.48-0.11,0.71c-0.17,0.95-0.41,1.86-0.74,2.68
	l-0.14,0.34c-0.38,0.94-0.86,2.03-1.56,3.08c-0.6,0.92-1.21,1.72-1.87,2.44c-1.59,1.72-3.41,3.1-5.29,3.99
	c-0.81,0.38-1.88,0.86-3.03,1.17c-1.03,0.28-2.01,0.47-3.01,0.58c-0.64,0.07-1.27,0.11-1.9,0.11
	C1090.17,702.08,1089.31,702.01,1088.45,701.89L1088.45,701.89L1088.45,701.89z"/>
<path class="st1" d="M473.9,685.8c0.23,1.66,0.57,3.33,1,4.96c0.48,1.79,1.06,3.5,1.72,5.11c1.31,3.03,2.99,5.92,5,8.58
	c2.09,2.71,4.54,5.15,7.28,7.27c2.52,1.89,5.27,3.5,8.16,4.75c3.15,1.32,6.53,2.25,10.05,2.78c1.63,0.21,3.34,0.31,5.08,0.31
	c1.57,0,3.2-0.09,4.84-0.28c2.09-0.29,3.9-0.65,5.54-1.1c1.49-0.41,3.04-0.95,4.75-1.63c1.84-0.78,3.41-1.56,4.8-2.39
	c1.4-0.84,2.73-1.75,4.06-2.76c2.32-1.82,4.5-3.99,6.5-6.46l0.11-0.23c0.61-0.76,1.23-1.63,1.86-2.58c0.64-1.01,1.25-2.09,1.83-3.19
	c0.21-0.41,0.41-0.84,0.62-1.27c0.17-0.34,0.33-0.68,0.52-1.01c0.04-0.1,0.08-0.19,0.13-0.29l-0.04,0.04l-0.08,0.14
	c0.02-0.04,0.03-0.08,0.05-0.11l-0.08,0.09c0.01-0.02,0.01-0.03,0.02-0.05l-0.04,0.04c1.38-3.2,2.33-6.61,2.8-10.1
	c0.19-1.53,0.28-3.12,0.29-4.72c0.01-0.94-0.02-1.87-0.08-2.79l-0.02-0.21l-0.02-0.25l-0.05-0.33c-0.12-0.61,0.01-1.1,0.34-1.43
	l0.02,0.02l0.01-0.01c0-0.01,0.01-0.01,0.02-0.02l-5.45-0.08l-4.64,0l-3.22-0.05h-6.5l-3.23,0.01l0.09,0.18
	c0.07,0.12,0.1,0.24,0.1,0.42c0.01,0.11,0.01,0.18,0,0.26l-0.03,0.23l-0.05,0.2c0.25,0.4,0.27,0.68,0.21,1.05
	c-0.02,0.19-0.08,0.4-0.14,0.58l-0.06,0.24l-0.28,0.95c-0.08,0.25-0.15,0.48-0.25,0.72c-0.48,1.27-1,2.34-1.59,3.24
	c-0.57,0.9-1.21,1.76-1.92,2.55c-0.71,0.79-1.51,1.53-2.36,2.18c-0.97,0.75-1.89,1.33-2.8,1.78l-0.18,0.08
	c-1.21,0.58-2.26,0.97-3.22,1.19c-1.52,0.38-3.04,0.58-4.55,0.58c-0.75,0-1.54-0.06-2.35-0.16c-0.25-0.02-0.48-0.06-0.76-0.1
	c-1.35-0.21-2.54-0.54-3.63-1c-0.86-0.35-1.87-0.8-2.84-1.41c-2.08-1.33-3.8-2.96-5.1-4.85c-0.74-1.07-1.35-2.19-1.82-3.33
	c-0.47-1.13-0.76-2.07-0.93-2.97c-0.22-1.18-0.32-2-0.29-2.65l-19.29-0.1l-0.08,0C473.5,679.74,473.56,682.89,473.9,685.8
	L473.9,685.8L473.9,685.8z"/>
<path d="M1091.02,666.01c-0.93,0-1.81,0.07-2.69,0.21c-1.36,0.19-2.73,0.56-4.08,1.11c-2.59,1.04-4.94,2.71-6.79,4.82
	c-0.23,0.26-0.45,0.53-0.67,0.81c-1.51,1.94-2.64,4.26-3.27,6.71c-0.33,1.25-0.51,2.6-0.55,4.14c-0.04,1.35,0.13,2.86,0.51,4.48
	c0.25,1.19,0.72,2.48,1.43,3.94c0.58,1.18,1.36,2.33,2.46,3.62c0.78,0.92,1.73,1.78,3.08,2.8c1.05,0.79,2.28,1.47,3.98,2.19
	c1.26,0.51,2.61,0.87,4.02,1.07c0.86,0.13,1.73,0.19,2.59,0.19c0.63,0,1.27-0.04,1.9-0.11c0.99-0.1,1.97-0.29,3-0.57
	c1.15-0.32,2.23-0.79,3.03-1.17c1.87-0.9,3.7-2.28,5.29-3.99c0.66-0.72,1.27-1.51,1.87-2.43c0.7-1.05,1.19-2.15,1.57-3.09l0.14-0.35
	c0.32-0.82,0.56-1.72,0.73-2.67c0.05-0.24,0.08-0.48,0.11-0.71c0.28-1.55,0.34-3.14,0.18-4.72c-0.24-2.66-1.14-5.34-2.6-7.74
	c-0.57-0.94-1.35-1.93-2.31-2.95c-0.96-1.03-2.18-2.02-3.64-2.94c-1.02-0.64-2.18-1.18-3.65-1.71c-1.27-0.44-2.68-0.72-4.3-0.86
	C1091.91,666.02,1091.47,666.01,1091.02,666.01L1091.02,666.01L1091.02,666.01z"/>
<path d="M1090.76,610.33c-5.84,0-11.74,0.71-17.52,2.12c-6.22,1.5-12.47,4.13-18.6,7.8c-1.93,1.15-3.93,2.54-6.28,4.38
	c-1.16,0.91-2.14,1.74-3.01,2.55c-0.58,0.54-1.14,1.11-1.7,1.68l-0.24,0.24l-0.89,0.9c-3.41,3.09-6.54,6.48-9.29,10.07
	c-2.08,2.72-3.97,5.57-5.62,8.47c-1.65,2.9-3.14,6.05-4.56,9.64c-1.23,3.07-2.28,6.47-3.13,10.1c-0.15,0.64-0.29,1.27-0.42,1.91
	c0.01,0.2,0.01,0.4,0.01,0.58c-0.01,0.4-0.06,0.8-0.11,1.2l-0.07,0.51l-0.07,0.51c-0.07,0.48-0.17,0.97-0.27,1.46l-0.05,0.23
	c-0.05,0.29-0.11,0.58-0.18,0.87c-0.05,0.17-0.08,0.35-0.11,0.54c-0.06,0.33-0.09,0.5-0.12,0.66c-0.04,0.18-0.08,0.36-0.11,0.54
	l-0.08,0.44l-0.03,0.24c-0.02,0.18-0.05,0.34-0.08,0.51l0.01,0.37c-0.34,3.24-0.38,6.79-0.12,10.85c0.23,3.58,0.75,7.27,1.56,10.97
	c2.92,13.61,10.15,26.66,20.36,36.76c5.09,5.03,10.96,9.31,17.44,12.72c6.36,3.35,13.35,5.77,20.22,7
	c4.01,0.72,7.65,1.13,11.13,1.27c0.9,0.04,1.82,0.05,2.73,0.05c2.64,0,5.39-0.16,8.17-0.48c3.59-0.4,7.23-1.1,10.84-2.07
	c3.05-0.81,6.19-1.92,9.9-3.5c12.87-5.48,24.35-15.14,32.32-27.2c2.71-4.1,5.09-8.74,7.06-13.78c0.88-2.22,1.65-4.6,2.36-7.26
	c0.34-1.26,0.64-2.52,0.91-3.79l0.06-0.31c0.23-1.05,0.43-2,0.52-2.97c0.91-5.43,1.21-10.99,0.88-16.54
	c0.08-0.3,0.03-0.62-0.03-0.98l-0.08-0.5l-0.05-0.51l-0.05-0.24l-0.04-0.5l-0.09-0.71c-0.05-0.38-0.14-0.75-0.22-1.12l-0.07-0.31
	l-0.06-0.3l-0.05-0.25c-0.07-0.32-0.14-0.64-0.18-0.96c-0.04-0.22-0.07-0.45-0.1-0.68l-0.07-0.52l-0.14-0.94
	c-0.09-0.63-0.18-1.25-0.23-1.87c-0.02-0.15-0.02-0.28-0.03-0.43c-0.95-4.69-2.38-9.31-4.25-13.71c-1.38-3.27-2.88-6.28-4.6-9.2
	c-1.59-2.71-3.5-5.46-5.84-8.39c-3.97-4.95-8.89-9.65-14.63-13.96c-5.19-3.89-11.21-7.11-18.42-9.83c-3.04-1.15-6.39-2.1-9.97-2.81
	c-3.63-0.72-7.26-1.19-10.81-1.39C1093.29,610.36,1092.02,610.33,1090.76,610.33L1090.76,610.33L1090.76,610.33z M1091.03,721.26
	c-1.59,0-3.21-0.1-4.82-0.28c-3.37-0.49-6.66-1.39-9.78-2.67c-3.02-1.33-5.83-2.96-8.34-4.87c-2.59-2.04-4.91-4.35-6.9-6.88
	c-1.98-2.62-3.62-5.44-4.9-8.4c-1.26-3.09-2.14-6.32-2.61-9.58l-0.04-0.22c-0.39-3.24-0.39-6.51,0.01-9.71
	c0.43-3.07,1.24-6.14,2.42-9.14l0.11-0.29c0.74-1.72,1.63-3.46,2.63-5.15c0.05-0.03,0.11-0.11,0.18-0.21
	c0.52-0.81,1.09-1.62,1.8-2.54c0.21-0.28,0.43-0.54,0.65-0.8l0.18-0.21c1.98-2.32,4.19-4.44,6.57-6.3c2.44-1.84,5.04-3.38,7.71-4.57
	l0.54-0.24c2.98-1.21,6.11-2.08,9.31-2.57l0.31-0.05c1.66-0.2,3.34-0.31,5-0.31c1.73,0,3.48,0.11,5.23,0.33
	c3.22,0.48,6.36,1.35,9.58,2.64c2.97,1.28,5.81,2.94,8.44,4.93c2.48,1.96,4.72,4.21,6.66,6.67c1.85,2.44,3.44,5.15,4.72,8.06
	c1.29,3.11,2.2,6.39,2.71,9.74l0.03,0.24c0.19,1.52,0.29,3.15,0.29,4.87c0,1.61-0.1,3.25-0.31,4.86c-0.45,3.13-1.28,6.24-2.48,9.26
	l-0.12,0.29c-1.32,3.06-3,5.93-4.99,8.54l-0.25,0.32l-0.33,0.39l-0.29,0.35l-0.34,0.39c-1.39,1.6-2.8,2.98-4.3,4.21l-1.09,0.92
	c-2.45,1.94-5.29,3.63-8.46,5.03c-3.09,1.26-6.37,2.16-9.76,2.66C1094.25,721.16,1092.58,721.26,1091.03,721.26L1091.03,721.26
	L1091.03,721.26z"/>
<path d="M810.94,237.94l-0.21,0.15l-0.48-0.02c-10.07,0-20.13,0.05-30.2,0.08l-4.27,0.02l-4.27,0.02l-0.97,0.01
	c-8.03,0.04-15.92,0.07-23.82,0.09c-11.25,0.03-22.51,0.08-33.76,0.12l-1.47,0.01c-10.86,0.05-21.54,0.08-32.22,0.11
	c-26.75,0.07-53.51,0.09-80.26,0.09c-20.88,0-41.75-0.02-62.62-0.04l-22.47-0.02c-14.9-0.02-29.79-0.03-44.67-0.05
	c-16.76-0.03-33.52-0.06-50.27-0.06c-6.75,0-13.49,0.01-20.24,0.02l-23.94,0.04l-24.18,0.04c-0.06,0.29-0.06,0.51-0.06,0.73
	l-0.01,0.33c0,0.67-0.02,1.34-0.04,2.01c-0.02,0.47-0.05,0.94-0.08,1.41l-0.01,0.39l-0.04,0.42l-0.04,8.88
	c-0.01,3.69-0.02,7.38-0.05,11.07c-0.05,7.34-0.08,14.7-0.11,22.04c-0.02,5.77-0.05,11.49-0.08,17.22
	c-0.08,14.93-0.12,29.87-0.15,44.81l-0.02,6.76c-0.02,9.12-0.05,18.25-0.09,27.37l-0.15,35.09l-0.07,15.51l-0.14,31.28
	c-0.02,3.01-0.03,6.01-0.04,9.02c-0.02,3.36-0.04,6.72-0.05,10.08l-0.11,20.21c-0.11,20.32-0.21,40.63-0.34,60.94l-0.11,19.09
	L348.73,597h0.01l0.04,0.04l-0.03,5.15l-0.09,17.21l-0.06,1.95c-0.02,2.44-0.03,4.88-0.03,7.32c-0.01,1.64-0.01,3.29,0,4.93v0.61
	v0.2c0,0.9,0,1.82,0.08,2.71c-0.02,2.74-0.04,5.43-0.05,8.12c-0.02,1.98-0.04,3.96-0.06,5.94l-0.01,0.61l-0.05,5.34
	c-0.03,3.73-0.04,7.47-0.05,11.2v0.92l-0.01,2.76l-0.13,0.99l0.01,1.23v1.21c0.01,0.19,0.01,0.39,0.01,0.58l0.18,0.18
	c0.35-0.02,0.68-0.02,1.01-0.02l1.2,0.02l0.88,0.02c0.48,0,0.94,0,1.42,0.02l5.24-0.13c6.7,0.02,13.4,0.03,20.1,0.05
	c12.08,0.02,24.16,0.08,36.24,0.15l11.66,0.05l0.78,0.09l0.71-0.01h0.7l8.7-0.04c-0.38,0.18-0.58,0.37-0.73,0.63
	c-0.15,0.28-0.24,0.56-0.25,0.87c-0.07,0.18-0.11,0.38-0.11,0.58c-0.06,0.28-0.08,0.44-0.07,0.58c-0.05,0.33-0.06,0.46-0.06,0.59
	c-0.01,0.06-0.01,0.13-0.01,0.2c-0.02,0.11-0.04,0.25-0.04,0.39l-0.02,0.63c-0.04,1.07-0.07,2.13-0.05,3.2
	c0.02,1.29,0.09,2.58,0.19,3.86c0.2,2.68,0.56,5.45,1.08,8.21c0.46,2.39,1.04,4.77,1.77,7.27c0.79,2.68,1.79,5.42,3.06,8.4
	c2.24,5.28,5.22,10.43,8.86,15.28c3.63,4.85,7.85,9.27,12.55,13.14c7.13,5.86,15.22,10.32,24.04,13.28
	c0.89,0.31,1.75,0.58,2.61,0.84c5.66,1.71,11.73,2.74,18.04,3.07c1.17,0.05,2.36,0.08,3.53,0.08c4.49,0,9.15-0.42,13.82-1.26
	c5.63-1.01,11.33-2.76,16.96-5.2c10.57-4.58,20.19-11.91,27.79-21.19c7.67-9.37,13.05-20.57,15.56-32.4
	c0.62-2.88,1.07-5.93,1.36-9.3c0.12-1.44,0.21-2.97,0.25-4.82c0.03-1.76,0.02-3.13-0.05-4.32c-0.02-0.34-0.08-0.58-0.21-0.82
	c-0.11-0.17-0.24-0.32-0.38-0.43c0.02-0.11,0-0.27-0.02-0.44c-0.03-0.3-0.15-0.57-0.35-0.77l11.77,0.12h0.25
	c11.51,0.03,23.02,0.06,34.52,0.08c-0.06,0.03-0.08,0.11-0.08,0.2c0.18,0.02,0.36,0.03,0.55,0.03c0.41,0,0.83-0.04,1.27-0.08
	c0.38-0.04,0.78-0.08,1.18-0.11l0.24-0.03h0.24c0.57-0.04,1.13-0.05,1.7-0.05c0.56,0,1.13,0.02,1.71,0.05
	c4.91,0.01,9.81,0.02,14.71,0.02h5.43c7.21,0,14.42-0.01,21.63-0.02l7.21-0.02c8.56-0.02,17.14-0.03,25.71-0.03l3.48-0.01
	c3.48,0,6.95,0.01,10.43,0.03l3.09,0.02l3.1,0.02l1.08,0.01l1.48,0.01c0.67,0,1.33-0.01,2-0.04c0.18-0.02,0.37-0.02,0.54-0.02
	l0.7,0.01l0.45,0.02c1.32,0,2.63,0.01,3.93,0.02l2.61,0.02l2.62,0.02c1.08,0.01,2.16,0.02,3.24,0.02c1.48,0,2.95-0.01,4.42-0.02
	l1.92-0.02c1.28-0.01,2.56-0.01,3.84-0.01l4.16,0.01l4.16,0.01l-0.03,0.28c0.03,0,0.06,0,0.09,0c0.47,0,0.89-0.1,1.3-0.19l0.38-0.09
	l0.35-0.08c1.92-0.41,3.9-0.63,5.9-0.63c0.74,0,1.51,0.03,2.28,0.09c1.35,0.1,2.72,0.31,4.08,0.62l3.4,0.01
	c4.64-0.01,9.28-0.04,13.92-0.08l0.31-0.01h0.3c0.88-0.02,1.76-0.03,2.64-0.1c0.25-0.02,0.5-0.02,0.74-0.02h0.38l2.02-0.01h2.02
	c0.71-0.01,1.4-0.31,1.91-0.85c0.47-0.5,0.71-1.12,0.68-1.76c-0.09-2.02-0.08-4-0.07-6.19l0.01-1.97c-0.01-2.52-0.01-5.04,0.01-7.57
	c0.03-6.25,0.04-12.49,0.04-18.74c0-12.27,0-24.53-0.02-36.79c-0.01-6,0.02-12.01,0.06-18.01l0.02-3.95l0.02-3.03
	c0.01-2.97,0.02-5.95,0.02-8.92v-0.45v-0.64c0.02-11.65,0.03-23.18,0.04-34.75c0.01-5.69,0.02-11.39,0.04-17.07
	c0.01-5.19,0.03-10.73,0.17-16.37c0.31-11.65,0.37-22.95,0.41-35.46l0.01-2.96c0.8-1.43,1.61-2.88,2.45-4.32
	c0.05-0.07,0.08-0.13,0.11-0.21l0.23-0.37l0.22-0.38l0.81-1.36c1.53-2.44,3.14-4.86,4.78-7.2l0.18-0.23l0.26-0.36l0.25-0.37
	c0.05-0.05,0.09-0.12,0.13-0.18c1.03-1.4,2.07-2.81,3.14-4.2c0.18-0.25,0.48-0.63,0.79-1l0.32-0.41c3.27-4.07,6.77-7.98,10.37-11.61
	c4.33-4.39,9.12-8.64,14.24-12.63c4.95-3.81,10.17-7.33,15.53-10.47c2.39-1.4,4.97-2.79,7.87-4.28c2.94-1.5,5.68-2.77,8.36-3.89
	c4.86-2.03,10.11-3.88,15.59-5.5l3.4-0.02c6.51-0.05,13.03-0.11,19.54-0.18l3.88-0.05h0.41c8.89-0.1,17.7-0.2,26.5-0.25
	c6.64-0.04,13.29-0.1,19.93-0.17l4.98-0.05c8.82-0.09,17.63-0.18,26.46-0.22c7-0.05,14.01-0.07,21.01-0.08l9.41-0.04
	c-0.03,0.21-0.02,0.21-0.02,0.22l0.37-0.02c0.8-0.04,1.6-0.06,2.41-0.06c0.25,0,0.51,0,0.76-0.01c0.44-0.02,0.9-0.03,1.35-0.05
	c0.21-0.01,0.32-0.01,0.43-0.02c0.28-0.14,0.28-0.14,0.28-0.15c-0.09-0.42-0.11-0.65-0.13-0.87c-0.05-0.43-0.05-0.74-0.05-1.04
	v-0.39l-0.01-0.25c-0.01-0.34-0.02-0.64,0-0.94c0.02-0.39,0.03-0.78,0.06-1.17c-0.12-2.12-0.15-4.27-0.17-6.36l-0.02-1.82
	c-0.05-5.01-0.07-10.03-0.09-15.05l-0.02-3.83l-0.03-5.05v-0.4c-0.06-9.94-0.12-19.83-0.15-29.71v-2.88l0.01-2.88
	c0-6.49,0.01-12.97,0.02-19.47c0.02-5.39,0.02-10.79,0.03-16.18c0.02-0.35,0.02-0.65,0.03-0.96c0.02-1.07,0.02-2.12,0.03-3.19
	l0.02-1.61l0.03-4.63l0.04-4.65c0.01-1.77,0.03-3.55,0.05-5.32l0.05-3.18l0.03-3.6c0.02-1.82,0.03-3.6,0.05-5.4l0.02-1.43l0.02-1.4
	l0.02-1.04c0.01-1.05,0.02-2.11,0.02-3.16v-0.3l0.25-0.05l-0.08-1.13l-0.12-1.1l-0.05-0.45c-0.05-0.59-0.06-1.2-0.08-1.82
	l-0.01-0.25v-0.24l-0.44-0.06l-0.89-0.02l-0.46-0.01c-0.48-0.02-0.95-0.03-1.43-0.03l-0.51,0.01c-0.61,0.02-1.04,0.05-1.47,0.08
	l-0.25,0.01l-0.35,0.03l-0.44,0.03c-0.07,0.15-0.15,0.24-0.25,0.3c-0.05,0.03-0.12,0.05-0.21,0.05c-0.47-0.05-0.81-0.11-1.15-0.17
	l-0.41-0.06c-0.32-0.01-0.52-0.12-0.57-0.34c-8.08-0.04-16.14-0.04-24.19-0.04c-8.14,0-16.28,0-24.43,0.01
	c-9.28,0.02-18.56,0.02-27.85,0.02c-24.47,0-48.95-0.03-73.43-0.1c-20.24-0.05-40.5-0.08-60.74-0.08h-6.85c-0.64,0-1.27,0-1.91-0.01
	h-0.29l-0.31-0.01C811.98,237.52,811.43,237.59,810.94,237.94L810.94,237.94L810.94,237.94z M912.15,242.87
	c11.32-0.03,22.62-0.04,33.94-0.04c11.32,0,22.62,0.01,33.94,0.02c11.32,0.01,22.63,0.02,33.95,0.02l22.09,0.05l-0.06,1
	c0,1.41,0.02,2.82,0.04,4.23l0.02,1.06l0.04,2.65l0.01,0.66c0.07,5.7,0.13,11.34,0.18,16.98c0.01,2.11,0.02,4.22,0.04,6.33l0.03,3.2
	c0.01,0.93,0.02,1.86,0.05,2.91l0.01,0.74l0.01,8.77c0.01,5.84,0.02,11.69,0.04,17.53l0.02,15.03c-0.01,5.54-0.03,11.1-0.05,16.71
	v0.24v0.24l-0.01,0.6v0.65c-0.02,3.43-0.04,6.85-0.07,10.3v0.36v0.3c-0.02,2.66-0.05,5.26-0.05,7.87l-0.03,4.72l-0.03,4.72
	c-0.02,3.11-0.04,6.22-0.06,9.33l-0.03,3.4l-0.06,2.99l-0.67-0.03h-0.74c-15.93-0.05-33.14-0.12-51.09-0.3
	c-8.36-0.08-16.71-0.16-25.06-0.21c-8.38-0.05-16.75-0.12-25.13-0.23c-7.85-0.12-16.23-0.18-25.61-0.22
	c-0.56,0.12-1.08,0.22-1.66,0.33c-0.21,0.05-0.31,0.06-0.4,0.06c-0.29,0.1-0.56,0.18-0.84,0.27c-0.63,0.2-1.26,0.39-1.9,0.56
	l-1.63,0.44l-0.37,0.1c-0.39,0.11-0.78,0.23-1.13,0.35l-0.51,0.15c-1.86,0.65-3.74,1.4-5.45,2.08l-0.42,0.17l-0.62,0.25l-0.48,0.19
	c-0.46,0.18-0.93,0.37-1.4,0.54l-0.27,0.11l-0.46,0.18l-1.1,0.44l-0.47,0.21c-0.34,0.15-0.51,0.21-0.72,0.27l0.15,0.14
	c-4.35,1.63-8.66,3.47-12.77,5.44c-8.83,4.26-17.27,9.48-25.1,15.53l-0.57,0.44c-5.91,4.59-11.5,9.67-16.61,15.08
	c-2.03,2.16-3.98,4.38-5.8,6.58c-0.51,0.61-1.01,1.23-1.5,1.84l-0.17,0.22c-1.73,2.14-3.39,4.32-5.08,6.69l-0.65,0.94
	c-1.71,2.48-3.27,4.89-4.77,7.34l-0.17,0.21l0.04-0.25c-0.19,0.12-0.3,0.29-0.4,0.44l-0.3,0.5l-0.11,0.18l-0.26,0.41
	c-0.18,0.31-0.36,0.62-0.53,0.94l-0.4,0.78l-0.2,0.39l-0.48,0.91l-0.21,0.4c-0.28,0.54-0.5,0.94-0.68,1.35l-0.41,0.86l-0.67,1.43
	c-0.44,0.97-0.75,2.01-1.05,3.01l-0.12,0.37l-0.08,0.28c-0.11,0.34-0.21,0.67-0.3,1.03l-0.18,0.68l-0.14,0.54l-0.1,0.41
	c0.02,9.5,0.09,17.53,0.24,25.28c0.03,2.02,0.08,4.03,0.12,6.04l0.11,4.81c0.05,2.48,0.06,4.97,0.07,7.45l0.01,1.23l0.01,1.25
	l0.01,5.65v0.6c0.02,5.57,0.03,10.96,0.03,16.36l0.01,10.93c0.01,12.17,0.02,24.27,0.07,36.37l0.03,6.01l0.01,2.5
	c0.02,4.16,0.05,8.33,0.04,12.5c-0.01,7.94-0.01,15.89-0.01,23.84c0,7.61,0,15.21,0.02,22.87c0.01,3.54,0.02,7.08,0.04,10.6
	c0,1.4-0.01,2.8-0.02,4.22v1.59v1.38c0,0.92,0,1.84-0.05,2.81l-1.2-0.07l-1.23-0.03l-1.05-0.05c-0.44-0.02-0.87-0.04-1.32-0.05
	c-1.71-0.05-3.43-0.05-5.14-0.06l-2.58-0.01l-3.63-0.02l-3.61-0.02h-0.23c-2.17-0.01-4.28-0.02-6.37-0.02c-2.89,0-5.79,0-8.69,0.01
	l-4.34,0.02l-7.84,0.02h-1.64l-3.96-0.01c-1.51-0.02-3.01-0.02-4.52-0.02l-2.79,0.02l-5.91,0.05l-0.86,0.01
	c-0.58,0.01-1.17,0.02-1.75,0.02c-0.71,0-1.43-0.01-2.15-0.03c-0.6-0.02-1.2-0.03-1.8-0.03c-0.51,0-1.02,0-1.53,0.01l-0.77,0.02
	l-1.53,0.02c-2.3,0.01-4.52,0.02-6.75,0.03c-2.58,0.02-5.15,0.02-7.73,0.02h-3.86h-3.86l-18.1-0.04h-0.37
	c-12.73-0.02-25.35-0.05-37.97-0.05l-6.85,0.01c-14.11,0.01-28.23,0.04-42.34,0.08h-0.26c-9.32,0.02-18.63,0.05-27.95,0.06h-3.3
	l-37.1,0.05h-1.1l-1.18,0.01c-35.94,0.04-65.98,0.08-95.77,0.21l-3.14,0.01h-0.25h-0.21c-22,0.11-43.95,0.21-65.92,0.26l-15.54-0.02
	l0.02-1.3v-0.98l0.02-1.49c0.01-1,0.01-1.99,0.01-2.98l0.03-4.74c0.02-2.9,0.04-5.79,0.02-8.69c-0.02-4.78,0-9.58,0.02-14.4
	c0.08-0.89,0.1-1.62,0.12-2.34v-0.21v-0.37c0.02-1,0.03-1.99,0.04-2.99l0.02-2c0.03-3.34,0.05-6.69,0.06-10.06l0.01-0.2
	c0.03-5.6,0.05-11.21,0.08-17.01l0.01-0.43l0.08-18.81l0.08-18.82c0.07-17.05,0.15-34.12,0.25-51.33l0.02-2.78l0.13-27.05l0.03-6.66
	l0.03-6.65l0.01-0.64v-0.34l0.01-0.86c0.08-10.89,0.15-21.75,0.21-32.61c0.06-8.69,0.11-17.36,0.15-26.04
	c0.09-18.32,0.18-36.5,0.36-54.68c0.15-14.48,0.23-28.97,0.31-43.46l0.02-4.02l0.08-17.48l0.04-6.03c0.05-8.06,0.1-16.12,0.13-24.17
	c0.02-2.62,0.03-5.15,0.05-7.68c0.02-2.55,0.03-5.08,0.08-7.67l25.81,0.05c12.93,0.01,25.86,0.02,38.79,0.02
	c10.89,0,21.8-0.01,32.7-0.02c15.18-0.02,30.35-0.04,45.6-0.06h0.81h0.74h0.67l12.27-0.02l12.11-0.02
	c20.17-0.03,40.35-0.05,60.54-0.05h4.71l9.62,0.01l5.57,0.01h5.55h0.4h0.39c31,0.02,63.07,0.03,94.52,0.17l26.3,0.11l26.36,0.11
	l15.61,0.07l4.18,0.02c8.49,0.03,17.01,0.06,25.59,0.06h0.79l0.8-0.01l0.38-0.05l0.44-0.05l0.45-0.06c0.63-0.07,1.26-0.12,1.89-0.13
	h0.28c0.09-0.02,0.18-0.02,0.38-0.04l0.44-0.05l0.53-0.05l0.48-0.05l0.64-0.05c0.48-0.05,0.96-0.09,1.44-0.13
	c0.45-0.04,0.91-0.08,1.33-0.08c0.15-0.22,0.21-0.39,0.32-0.68l4.47,0.03C850.41,243.02,881.28,242.95,912.15,242.87L912.15,242.87
	L912.15,242.87z M507.1,719.25c-3.52-0.52-6.9-1.46-10.05-2.78c-2.9-1.26-5.64-2.85-8.17-4.75c-2.73-2.12-5.18-4.56-7.27-7.27
	c-2.02-2.66-3.7-5.55-5-8.58c-0.66-1.61-1.24-3.34-1.72-5.11c-0.43-1.63-0.77-3.3-1-4.97c-0.33-2.91-0.4-6.05-0.19-9.35l19.38,0.09
	c-0.03,0.64,0.07,1.47,0.29,2.65c0.16,0.9,0.45,1.83,0.92,2.97c0.48,1.14,1.09,2.26,1.82,3.33c1.31,1.89,3.02,3.52,5.1,4.85
	c0.97,0.61,1.98,1.06,2.84,1.41c1.09,0.46,2.27,0.78,3.62,0.99c0.28,0.05,0.52,0.08,0.76,0.1c0.81,0.11,1.6,0.16,2.35,0.16
	c1.5,0,3.03-0.19,4.54-0.57c0.96-0.22,2.02-0.61,3.23-1.19l0.18-0.08c0.9-0.44,1.82-1.03,2.79-1.78c0.86-0.65,1.66-1.39,2.36-2.19
	c0.71-0.79,1.36-1.64,1.93-2.54c0.58-0.91,1.1-1.97,1.59-3.24c0.09-0.24,0.17-0.48,0.25-0.73l0.28-0.95l0.06-0.24
	c0.05-0.18,0.11-0.38,0.13-0.58c0.06-0.37,0.05-0.65-0.2-1.06l0.04-0.19l0.03-0.23c0.01-0.08,0.01-0.15,0-0.26
	c0-0.18-0.02-0.31-0.09-0.43l-0.09-0.18l9.73-0.01l3.22,0.05l10.24,0.01l-0.17,0.11l-0.02-0.02c-0.34,0.33-0.45,0.82-0.34,1.43
	l0.05,0.33l0.02,0.25l0.02,0.21c0.06,0.92,0.09,1.85,0.08,2.79c-0.01,1.59-0.11,3.18-0.29,4.71c-0.48,3.5-1.42,6.89-2.81,10.1
	l0.25-0.25c-0.27,0.44-0.5,0.91-0.72,1.38c-0.21,0.42-0.41,0.84-0.63,1.27c-0.58,1.1-1.19,2.18-1.83,3.18
	c-0.62,0.96-1.25,1.83-1.85,2.59l-0.11,0.23c-1.99,2.46-4.18,4.64-6.49,6.46c-1.33,1.01-2.67,1.92-4.07,2.76
	c-1.39,0.82-2.95,1.6-4.79,2.38c-1.71,0.69-3.27,1.23-4.75,1.63c-1.64,0.45-3.46,0.81-5.55,1.1c-1.64,0.18-3.27,0.28-4.83,0.28
	C510.43,719.56,508.72,719.46,507.1,719.25L507.1,719.25L507.1,719.25z"/>
<path d="M891.5,554.1c-0.62,0-1.14,0.52-1.14,1.14v2.15v0.2c0,0.24,0,0.48,0.02,0.71c0.03,1.03,0.04,2.08,0.04,3.12v1.04
	c0.02,1.49,0.02,2.97,0.02,4.45l0.02,10.23l0.01,2c0,2.68,0,5.36-0.02,8.04l-0.02,2.28l-0.03,2.32c-0.01,1.24,0,2.48,0.01,3.72v0.94
	c0,0.61,0.49,1.1,1.1,1.1c3.53,0,7.05-0.05,10.58-0.09l1.65-0.02c2.2-0.03,4.41-0.05,6.61-0.06c0.51,0,0.93-0.43,0.93-0.93
	c0-0.87,0-1.74-0.02-2.61l-0.02-0.84l-0.02-0.93c-0.03-1.27-0.04-2.55-0.05-3.82l-0.01-1.53c-0.02-1.7-0.02-3.41-0.03-5.1
	c0.02-2.14,0.03-4.11,0.04-6.07l0.02-3.43l0.02-3.44l0.02-3.44V564c0-1.1,0-2.21,0.04-3.31c0.05-1.4,0.05-2.8,0.05-4.19l0.01-1.26
	c0-0.53-0.45-0.99-0.99-0.99l-1,0.01h-1c-1,0-2-0.01-3.01-0.02l-1.72-0.03l-0.95-0.02c-0.63-0.01-1.27-0.02-1.9-0.03
	c-1.42,0-2.83-0.02-4.24-0.03C894.82,554.12,893.16,554.1,891.5,554.1L891.5,554.1L891.5,554.1z"/>
<path d="M912.24,414.41c-0.66,0-1.29,0.28-1.77,0.79l-1.01-0.05c-0.85,0-1.65,0.05-2.65,0.16c-1.02,0.12-2.05,0.26-3.05,0.44
	c-0.88,0.15-1.76,0.35-2.64,0.57l-0.75,0.12l-0.94,0.17l-0.71,0.12c-1.56,0.25-3.12,0.51-4.62,1.02c-0.63,0.2-1.27,0.44-1.89,0.68
	l-0.83,0.31c-0.6,0.22-1.21,0.42-1.82,0.61l-1.04,0.35c-1.53,0.5-3.21,1.11-5.28,1.93c-1.9,0.71-3.68,1.61-5.3,2.66
	c-0.99,0.63-1.98,1.25-2.97,1.86l-1.83,1.15c-1.42,0.89-3.02,1.96-4.9,3.27c-0.43,0.3-0.86,0.61-1.28,0.91l-0.21,0.15l-0.92,0.67
	c-0.82,0.58-1.64,1.17-2.44,1.77c-0.68,0.51-1.36,1.04-2.04,1.57l-0.23,0.18l-2.28,1.75c-0.77,0.6-1.56,1.3-2.42,2.13l-0.44,0.45
	l-0.22,0.23l-0.17,0.18c-0.33,0.35-0.67,0.71-1.02,1.05l-0.61,0.58l-0.2,0.19c-1.15,1.11-2.25,2.17-3.24,3.33l-0.75,0.9l-0.76,0.9
	c-0.61,0.71-1.2,1.44-1.78,2.18c-0.43,0.54-0.85,1.09-1.27,1.64l-0.36,0.46l-0.69,0.89l-0.27,0.35l-0.54,0.69
	c-0.54,0.73-1.01,1.47-1.49,2.22c-0.34,0.55-0.6,0.95-0.86,1.35l-0.17,0.15l-0.17,0.18c-0.31,0.35-0.61,0.74-0.88,1.15
	c-0.32,0.44-0.64,0.87-0.94,1.33c-0.74,1.15-1.36,2.51-1.89,4.14c-0.18,0.1-0.38,0.25-0.56,0.42c-0.39,0.39-0.65,0.84-0.8,1.36
	c-0.14,0.34-0.18,0.72-0.21,1.12l-0.05,0.37l0.02-0.03l-0.04,0.32c-0.35,2.35-0.39,4.81-0.43,7.18c-0.02,0.96-0.03,1.82-0.06,2.68
	c-0.08,2.9-0.15,5.79-0.17,8.69c-0.03,3.79-0.08,7.58-0.13,11.37l-0.05,3.74l-0.07,5.97c-0.1,11.46-0.06,22.63-0.02,33.44
	l0.03,11.15c0.02,6.1,0.07,12.21,0.14,18.32c-0.06,2.18-0.13,4.29-0.2,6.38l-0.15,4.65c-0.21,7.63-0.31,15.16-0.38,21.62
	c-0.07,6.23-0.12,12.45-0.15,18.68l-0.01,0.58v0.61v0.57c-0.06,8.23-0.12,16.71-0.27,25.05c-0.05,3.07-0.05,6.16-0.04,9.23
	l-0.01,3.56c-0.01,2.38,0.02,4.78,0.08,7.16l0.03,1.44l0.03,1.45l0.01,0.34c0.01,1.07,0.02,2.36,0.23,3.56l0.09,0.3
	c0.08,0.95,0.64,1.8,1.49,2.27c0.25,0.67,0.84,1.19,1.54,1.38c0.21,0.08,0.42,0.11,0.64,0.11c0.41,0,0.83-0.12,1.2-0.34
	c0.31-0.17,0.61-0.45,0.81-0.76h0.84l0-0.05h0.74c4.66,0,9.27,0.03,13.88,0.06l3.33,0.02l3.23,0.02l3.22,0.02l3.24,0.02l3.24,0.02
	h4.06h3.61h3.2h2.85l2.53,0.01l2.53,0.01c5.89,0.01,11.78,0.01,17.67,0.05l2.99,0.02l6.01,0.02l2.96,0.01
	c16.48,0.08,33.34,0.17,49.96,0.17l10.14-0.01h3.28l3.29-0.01c1.77,0,3.56,0.01,5.35,0.03c2.07,0,4.14,0,6.21,0l6.62,0.01
	c0.1-0.26,0.15-0.46,0.18-0.65l0.06-0.28l0.1-0.41l0.09-0.4l0.09-0.39c0.08-0.34,0.15-0.7,0.22-1.04l0.07-0.38l0.12-0.58l0.09-0.51
	l0.09-0.51c0.08-0.44,0.18-0.9,0.3-1.35c0.42-2.8,1.05-5.79,1.88-8.89c0.54-1.99,1.16-3.95,1.82-5.81c0.51-1.41,1.1-2.93,1.8-4.62
	l0.09-0.23c1.44-3.33,3.11-6.62,4.98-9.8c0.8-1.35,1.73-2.78,2.73-4.25c0.21-0.28,0.43-0.57,0.65-0.85l0.15-0.19l0.42-0.6l0.27-0.35
	c0.49-0.69,1-1.36,1.51-2.04c4.62-5.99,9.98-11.35,15.93-15.95c2.84-2.17,5.86-4.19,8.97-6.02c2.99-1.74,6.22-3.37,9.59-4.82
	c3.4-1.42,6.94-2.66,10.53-3.69c3.66-1.01,7.42-1.79,11.18-2.28c3.78-0.5,7.61-0.75,11.39-0.75c3.7,0.01,7.48,0.27,11.24,0.78
	c3.57,0.48,7.18,1.21,10.73,2.15c3.68,1,7.41,2.29,11.08,3.83l0.32,0.15l0.62,0.27c2.01,0.9,4.06,1.89,6.09,2.97
	c2.12,1.13,4.26,2.41,6.36,3.77c1.56,1.01,3.24,2.21,5.17,3.64c0.02,0.02,0.2,0.16,0.2,0.16c2.89,2.25,5.59,4.65,8.03,7.11
	c2.39,2.39,4.78,5.11,7.1,8.1c2.33,3.04,4.47,6.2,6.34,9.38l0.04,0.21l0.61,0.95l0.12,0.19l0.23,0.37l0.21,0.33
	c0.18,0.31,0.36,0.63,0.53,0.94l0.15,0.28l0.16,0.31l0.35,0.61l0.15,0.28l0.1,0.18c0.15,0.28,0.31,0.57,0.44,0.86
	c0.18,0.38,0.34,0.77,0.49,1.15c0.11,0.25,0.22,0.49,0.31,0.74l0.21,0.52c0.19,0.42,0.36,0.8,0.52,1.17l0.13,0.31l0.48,1.1
	c0.14,0.32,0.28,0.65,0.41,0.97l0.18,0.25c0.02,0.1,0.03,0.16,0.02,0.24c0.42,1.04,0.83,2.05,1.2,3.08
	c0.11,0.28,0.17,0.45,0.22,0.63l0.23,0.71l0.18,0.56c0.67,2.06,1.25,4.21,1.82,6.78l0.15,0.74c0.08,0.12,0.14,0.25,0.18,0.37
	c0.16,0.38,0.3,0.77,0.42,1.17c0.14,0.44,0.26,0.9,0.34,1.33c0.08,0.35,0.14,0.71,0.19,1.08l0.03,0.23c0.07,0.45,0.12,0.9,0.17,1.36
	c0.03,0.38,0.07,0.76,0.12,1.13l0.08,0.6l0.08,0.59l0.04,0.25l0.09,0.39c0.02,0.2,0.05,0.41,0.08,0.62l0.03,0.24l0.08,0.52
	c0.09,0.47,0.14,0.71,0.17,0.95l0.05,0.44l0.02,0.21l0.02,0.34c0.04,0.33,0.05,0.61,0.04,0.9c0.02,0.13,0.04,0.26,0.05,0.4
	c0.02,0.28,0.03,0.36,0.05,0.44l0.38,0.14h0.36h0.34l6.43-0.02l9.36,0.02l9.36,0.02h3.73h3.73c3.75,0,7.5-0.01,11.25-0.02l6.64-0.05
	l3.36-0.02c2.77-0.02,5.54-0.05,8.3-0.05h0.38c1.21-0.01,2.2-1,2.2-2.22v-3.22c0-0.5-0.02-1-0.05-1.5l-0.04-0.94
	c-0.05-2-0.06-3.99-0.06-6c0.02-4.85,0.05-9.7,0.08-14.55c0.03-4.77,0.07-9.48,0.11-14.2c0.02-2.61,0.05-4.89,0.08-7.18
	c0.02-0.87,0.07-1.73,0.13-2.61c0.05-0.77,0.07-1.53,0.08-2.3l0.02-0.69c0.01-0.66-0.25-1.29-0.73-1.77
	c-0.5-0.5-1.16-0.79-1.82-0.79c-2.8,0-5.6-0.02-8.4-0.03l-2.11-0.01c-2.1-0.02-4.2-0.03-6.31-0.03h-0.32
	c0.11-12.65,0.12-25.37,0.12-38.37v-15.43l-0.01-0.44l-0.02-0.25c-0.03-0.39-0.05-0.77-0.05-1.17c0-0.62,0.01-1.23,0.03-1.86
	c0.01-0.35,0.02-0.67,0.03-1.02v-0.22c0-0.18,0.01-0.37,0.03-0.54l-0.02-0.28l-0.02-0.25c-0.03-0.37-0.05-0.75-0.07-1.12l-0.02-0.38
	l-0.02-0.6c-0.27-0.55-0.57-1.07-0.87-1.56l-0.12-0.23c-0.39-0.66-0.78-1.31-1.19-1.96c-0.02-0.39-0.09-0.85-0.36-1.28l-0.38-0.64
	l-0.38-0.63c-0.56-0.96-1.23-1.86-1.86-2.69c-0.44-0.64-0.96-1.26-1.38-1.75l-0.25-0.3c-0.64-0.75-1.28-1.49-1.97-2.2
	c-1.35-1.38-2.76-2.7-4.32-4.03c-1.66-1.41-3.45-2.78-5.33-4.07l-0.21-0.09c-0.8-0.35-1.55-0.67-2.31-0.97l-0.2-0.08l-0.26-0.11
	l-0.27-0.1c-0.35-0.13-0.69-0.26-1.04-0.36l-0.44-0.13l-0.38-0.12l-0.39-0.12l-0.57-0.19l-0.64-0.21c-0.41-0.14-0.82-0.26-1.25-0.37
	l-0.41-0.02l-0.65,0.02c-0.31,0.01-0.62,0.01-0.94,0.01l-1.05,0.02c-0.58,0-1.17,0.01-1.75,0.02c-0.44,0.03-0.44,0.07-0.44,0.1
	c-0.09,0.2-0.16,0.47-0.18,0.73l-0.28-0.2l-0.41-0.14c-0.32-0.1-0.47-0.15-0.61-0.2c-0.84-0.27-1.66-0.51-2.5-0.74
	c-0.18-0.04-0.34-0.04-0.51-0.04c-7.62-0.1-15.36-0.17-22.98-0.18l-4.68-0.01l-4.69-0.01c-4.08,0-8.16,0.02-12.24,0.11
	c-6.13,0.15-11.98,0.15-20.21,0.15c-2.28-0.02-4.55-0.03-6.82-0.03l-0.38,0.01c-1.62,0.01-3.12,0.01-4.63,0.01
	c-0.68,0-1.36,0-2.04-0.01c-2.12,0-4.25-0.01-6.37-0.02l-1.74-0.02h-0.95c0.08-0.02,0.15-0.11,0.18-0.19
	c0.31-0.53,0.51-1.34,0.25-1.96c-1.27-3.19-2.55-6.37-3.85-9.55c0-0.12-0.03-0.27-0.09-0.44c-0.15-0.35-0.28-0.69-0.41-1.04
	l-0.35-0.9l-0.49-1.23c-0.64-1.63-1.28-3.25-1.92-4.87l-3.7-9.26c-1.91-4.78-3.83-9.56-5.76-14.34l-1.69-4.19l-3.64-9.06l-3.63-9.05
	c-0.96-2.38-1.91-4.78-2.85-7.18l-0.53-1.33c-1.2-3.03-2.41-6.06-3.64-9.07l-1.88-4.59l-0.81-1.97l-4.82-11.77l-0.5-1.22l-0.13-0.33
	l-0.87-2.12c-0.81-1.96-1.61-3.91-2.44-5.87l-1.46-3.43l-0.44-1.01l-0.48-1.14l-0.48-1.13l-0.14-0.31l-0.14-0.31
	c-0.08-0.18-0.18-0.35-0.28-0.5l-0.16-0.4c-0.02-0.31-0.16-0.65-0.4-0.93l-0.17-0.36c0-0.01-0.13-0.3-0.15-0.31l-0.27-0.05
	l-0.25-0.02c-0.48-0.04-0.95-0.08-1.42-0.11l-0.76-0.05l-0.77-0.05l-0.67-0.02l-0.67-0.02l-0.5-0.01c-0.33-0.01-0.65-0.02-0.97-0.03
	c-0.46-0.02-0.76-0.03-1.05-0.05c-0.25-0.02-0.5-0.04-0.75-0.05c-0.09-0.01-0.19-0.01-0.28-0.01c-0.11-0.01-0.24-0.01-0.36-0.01
	l-0.21-0.01l-0.2-0.01l-0.22-0.02h-0.34c-1.28,0-2.56,0.01-3.85,0.02l-2.91,0.01h-2.85l-2.85-0.01h-18.55l-12.47,0.01h-12.46
	l-12.47-0.01h-2.81h-0.36l-0.34-0.01c-9.58-0.11-19.17-0.16-28.76-0.19l-5.9-0.02c-2.97-0.01-5.91-0.02-8.85-0.04l-3.5-0.02
	l-3.52-0.02h-1.46h-0.39h-0.39c-1.3,0-2.6,0-3.89-0.07H912.24L912.24,414.41L912.24,414.41z M1043.05,419.3
	c0.3,0,0.57-0.04,0.88-0.12c0.16-0.04,0.29-0.08,0.4-0.15c0.34,0,0.71-0.02,1.1-0.06l0.23,0.76c0.11,0.45,0.28,0.88,0.46,1.33
	l0.68,1.73l0.48,1.2l-0.48,0.21c-0.21,0.12-0.41,0.25-0.62,0.35l-0.25,0.15c-0.61,0.31-1.17,0.7-1.72,1.16l-0.56,0.49
	c-0.61,0.28-1.27,0.74-2.01,1.43c-0.75,0.67-1.36,1.35-1.85,2.1c-0.15,0.21-0.29,0.44-0.41,0.66c-0.4,0.53-0.68,0.92-0.98,1.3
	c-0.55,0.72-1.19,1.57-1.71,2.53c-0.17,0.31-0.32,0.62-0.48,0.94l-0.13,0.28c-0.18,0.37-0.35,0.74-0.54,1.1
	c-0.31,0.55-0.71,1.3-0.99,2.12l-0.31,0.86c-0.25,0.67-0.45,1.22-0.61,1.77c-0.26,0.89-0.45,1.8-0.64,2.71l-0.2,0.91
	c-0.14,0.61-0.28,1.23-0.38,1.86c-0.1,0.61-0.19,1.21-0.28,1.82l-0.19,1.26c-0.1,0.61-0.18,1.24-0.25,1.86l-0.11,0.89l-0.21,1.5
	l-0.05,0.31c-0.06,0.35-0.12,0.71-0.16,1.06c-0.1,0.99-0.14,1.97-0.18,2.96l-0.02,0.51c-0.05,0.91-0.09,1.82-0.11,2.74
	c-0.02,0.96,0.02,1.91,0.06,2.87c0.03,0.66,0.06,1.31,0.08,1.96l0.03,0.96c0.04,0.89,0.15,1.78,0.26,2.66l0.18,1.3
	c0.05,0.76,0.11,1.53,0.11,2.28c0.02,1.27,0.06,2.21,0.15,3.05c0.04,0.44,0.08,0.87,0.14,1.3l0.08,0.84l0.05,0.69
	c0.09,1,0.2,2,0.35,2.99c0.04,0.25,0.08,0.5,0.13,0.74l0.09,0.53l0.14,0.83l0.14,0.83c0.15,0.92,0.31,1.84,0.49,2.76
	c0.09,0.52,0.2,1.04,0.31,1.55l0.1,0.48l0.16,0.77l0.06,0.28l0.09,0.41c0.18,0.81,0.34,1.56,0.55,2.32l0.65,2.55l0.14,0.52
	l0.06,0.25c0.18,0.71,0.36,1.41,0.6,2.1l0.1,0.49c0.11,0.51,0.21,0.91,0.28,1.33l0.13,0.88c0.12,0.87,0.25,1.73,0.44,2.62
	c0.25,1.13,0.64,2.37,1.17,3.67l0.11,0.28c0.49,1.15,0.94,2.24,1.6,3.2c0.14,0.23,0.31,0.44,0.48,0.65l0.28,0.34
	c0.28,0.34,0.45,0.54,0.64,0.74c0.54,0.58,0.96,1.02,1.34,1.5c0.57,0.69,1.14,1.39,1.73,2.08c0.62,0.71,1.33,1.33,1.95,1.86
	c0.72,0.6,1.49,1.13,2.35,1.63c0.71,0.41,1.53,0.75,2.23,1.03l0.47,0.19c1.08,0.45,2.1,0.81,3.1,1.09l1.32,0.41l1.32,0.4
	c1.92,0.58,3.87,1.02,5.7,1.43c0.9,0.21,1.82,0.39,2.73,0.54l0.77,0.15c0.68,0.11,1.39,0.21,2.09,0.28
	c0.67,0.08,1.35,0.08,2.02,0.09c0.4,0.02,0.77,0.05,1.16,0.08c0.45,0.04,0.89,0.07,1.33,0.09c0.45,0.02,0.91,0.03,1.37,0.03
	c0.46,0,0.92-0.01,1.37-0.02c0.4-0.02,0.78-0.05,1.17-0.09l0.4-0.02c0.46-0.04,0.73-0.05,0.99-0.05c0.6-0.02,1.2-0.08,1.81-0.13
	l0.8-0.07l0.64-0.05c0.65-0.05,1.3-0.11,1.93-0.21c0.26-0.05,0.51-0.09,0.77-0.15l0.34-0.06c0.15-0.03,0.31-0.05,0.46-0.07
	l0.37-0.05c0.41-0.07,0.83-0.15,1.24-0.22l0.41-0.07l0.73-0.14c0.18-0.04,0.37-0.06,0.56-0.08c0.25,0.05,0.34,0.06,0.43,0.06
	c0.11,0,0.23-0.03,0.34-0.08c0.1-0.02,0.21-0.07,0.34-0.16l0.1,0.16l0.18,0.5l0.22,0.51c0.11,0.24,0.22,0.43,0.37,0.62l0.38,0.92
	l0.34,0.83l0.31,0.74c0.84,2.05,1.69,4.09,2.55,6.14c0.06,0.1,0.11,0.2,0.15,0.31c0.15,0.34,0.18,0.34,0.21,0.34
	c0.07,0.02,0.15,0.08,0.21,0.16c0.05,0.12,0.11,0.25,0.16,0.39l0.1,0.18l0.13,0.41l0.16,0.41c0.28,0.54,0.5,0.94,0.72,1.34
	c0.03,0.07,0.07,0.14,0.11,0.2c0.3,0.56,0.58,1.13,0.86,1.7l0.43,0.85l0.41,0.87l0.18,0.37c0.11,0.2,0.18,0.38,0.27,0.55l0.57,0.12
	c0.02,0,0.03,0,0.05,0c1.2,0,2.32-0.02,3.45-0.03l1.16-0.02c0.68-0.01,1.36-0.01,2.05-0.01c1.45,0,2.91-0.01,4.35-0.02h0.58
	l4.43,0.02h1.23c1.36,0,2.72-0.01,4.09-0.02c0.41,0.14,0.78,0.21,1.16,0.21c1.06,0.01,2.12,0.02,3.19,0.02
	c1.43,0,2.88-0.01,4.32-0.02l2.55-0.02c3.6-0.02,7.19-0.02,10.79-0.02l1.05-0.01h1.05c1.22,0.02,2.44,0.03,3.66,0.04l3.7,0.01
	l3.7,0.01l3.71,0.01h2.86c6.33,0,12.65-0.05,18.97-0.12c5.03-0.02,10.07-0.05,15.1-0.1c0.12,0.05,0.21,0.08,0.31,0.1
	c2.58,1.4,5.09,3.01,7.44,4.78c2.12,1.69,4.31,3.67,6.69,6.08c0.47,0.48,0.91,0.96,1.36,1.46l0.21,0.23
	c0.39,0.44,0.79,0.87,1.2,1.29c0.25,0.24,0.46,0.49,0.69,0.75c0.24,0.28,0.43,0.51,0.62,0.71c0.18,0.19,0.35,0.39,0.52,0.59
	l0.25,0.29c0.17,0.18,0.35,0.33,0.58,0.44l-0.05,6.69l-0.01,0.82l-0.03,12.12l-0.04,12.12c-0.02,10.39-0.05,20.78-0.05,31.18
	l-1.03-0.07l-1.11-0.01c-3.29,0-6.59,0.02-9.88,0.03l-5.95,0.03c-3.97,0.02-7.91,0.03-11.86,0.06c-2.94,0.02-5.87,0.04-8.8,0.08
	c-3.21,0.04-5.66,0.11-7.94,0.21c-0.24,0.01-0.5,0.02-0.74,0.05h-0.21l-0.91,0.01h-0.91c-1.16,0-2.14,0.98-2.14,2.14v12.73
	c-1.85-3.16-4.25-6.46-7.1-9.82c-3.55-4.16-7.66-8.09-12.21-11.69l-0.93-0.73c-0.38-0.31-0.77-0.61-1.17-0.9
	c-1.16-0.87-2.35-1.7-3.55-2.51c-2.12-1.43-4.44-2.84-6.91-4.18c-2.14-1.16-4.17-2.15-6.22-3.04l-0.25-0.11
	c-5.24-2.27-10.63-4.03-16.05-5.22c-5.44-1.2-11.18-1.89-17.07-2.06c-0.65-0.02-1.31-0.02-1.97-0.02c-5.08,0-10.4,0.5-15.85,1.46
	c-5.69,1.05-11.35,2.71-16.83,4.93c-10.5,4.25-20.38,10.73-28.55,18.75c-3.86,3.8-7.38,8.01-10.43,12.51
	c-0.24,0.32-0.45,0.67-0.67,1.03l-0.38,0.62c-0.33,0.51-0.65,1.03-0.97,1.54c-0.74,1.2-1.46,2.42-2.15,3.64
	c-0.23,0.4-0.45,0.8-0.67,1.21l0.15-1c0.22-0.05,0.44-0.24,0.59-0.49c0.25-0.44,0.27-0.93,0.28-1.36l0.02-0.82l0.02-0.82
	c0.02-0.9,0.02-1.82,0.02-2.73l0.01-1.17l0.01-1.68c0.02-1.69,0.03-3.34,0.03-5.01c0-1.32-0.02-2.65-0.03-3.97l-0.02-3.17
	c-0.01-2.86,0-5.72,0.01-8.59c0.02-13.03,0.06-26.04,0.11-39.03c0-1.27,0.01-2.48,0.02-3.7c0.05-6.17,0.08-12.32,0.11-18.47
	c0.02-4.16,0.04-8.27,0.07-12.38c0.02-3.06,0.04-6.12,0.05-9.18c0.01-3.16,0.04-6.24,0.07-9.32c0.05-6.19,0.1-12.36,0.15-18.52
	l0.04-6.32l0.04-6.23l0.04-6.19l0.02-4.51l0.02-4.51c0.02-1.57,0.01-3.14,0-4.72v-2.39c-0.01-5.77-0.04-11.55-0.09-17.32
	c-0.02-2.58-0.05-5.14-0.08-7.71c-0.02-0.79-0.03-1.58-0.05-2.36c-0.02-1.05-0.05-2.1-0.05-3.15v-1.23c0-1.07-0.9-1.99-1.97-1.99
	c-5.62,0-11.24-0.02-16.85-0.05l-6.26-0.05c-3.83-0.04-7.67-0.08-11.5-0.08h-7.78c-8.95,0-17.9,0.01-26.85,0.04
	c-5.27,0.02-10.54,0.04-15.81,0.06l-10.56,0.04c-4.72,0.02-9.39,0.03-14.08,0.07c-1.66,0.02-3.3,0.04-4.95,0.06l-0.74,0.01
	l-0.37,0.01l-0.37,0.01l-0.37,0.01c-0.37,0.01-0.74,0.01-1.1,0.02l-0.51,0.03l-0.48,0.02c-0.56,0.04-0.8,0.05-1,0.15
	c-0.35,0.12-0.61,0.27-0.82,0.49l-0.71,0.08l-0.67,0.03c-0.84,0.07-1.62,0.25-2.45,0.42l-0.52,0.13l-0.58,0.14l-0.58,0.1
	c-0.4,0.11-0.83,0.27-1.31,0.49l-0.35,0.12l-0.27,0.09c-0.71,0.27-1.39,0.59-2.06,0.92c-0.35,0.17-0.71,0.34-1.07,0.5l-0.25,0.11
	l-0.43,0.18c-1.3,0.52-3.08,1.24-4.48,2.41c-0.74,0.62-1.37,1.27-2.11,2.02c-0.88,0.93-1.48,1.66-1.9,2.36
	c-0.34,0.54-0.65,1.13-0.95,1.7l-0.31,0.6l-0.11,0.21c-0.38,0.72-0.75,1.44-1.07,2.19c-0.22,0.51-0.41,0.97-0.54,1.44
	c-0.12,0.43-0.27,0.85-0.43,1.27c-0.06,0.16-0.12,0.32-0.19,0.48l-0.08,0.19l-0.11,0.28l-0.09,0.21c-0.21,0.52-0.39,0.96-0.53,1.4
	c-0.38,1.26-0.58,2.38-0.58,3.46c-0.01,1.1,0.03,2.21,0.08,3.3l0.04,0.58l0.08,1.15l0.05,0.8l-0.02,0.47l-0.01,0.23
	c-0.02,0.2-0.02,0.4-0.03,0.59c0,0.31,0.02,0.61,0.03,0.92l0.01,0.29l0.02,0.25c0.01,0.33,0.02,0.66,0.05,0.99l0.05,0.36l-0.02,0.92
	l-0.02,1.59l-0.02,1.57l0.01,0.41c0,0.28,0,0.54-0.01,0.82c-0.01,0.16-0.01,0.32,0.02,0.48c0.02,0.48,0.02,0.97,0.02,1.46
	l-0.01,0.64v2.78v1.4l-0.01,2.04c-0.01,2.04-0.02,4.08-0.05,6.11v0.9c0,1.04-0.01,2.09-0.05,3.13l-0.02,0.81
	c-0.04,1.13-0.08,2.25-0.1,3.39c-0.04,2.1-0.05,4.19-0.05,6.29l-0.02,2.36c-0.02,4.06-0.02,8.13-0.02,12.19l-0.01,6.1
	c-0.01,6.2-0.02,12.4-0.05,18.61c-0.11,24.45-0.09,48.94-0.07,72.61l0.01,6.45c0,2.61,0,5.23,0.01,7.84
	c-0.01,0.57-0.01,1.13-0.01,1.7l-0.05,6.34c-0.03,2.65-0.05,5.29-0.07,7.94l-0.02,6.98l-0.02,6.99l-0.02,4.64
	c-0.02,2.88-0.02,5.77-0.02,8.64l-3.79-0.08c-2.48,0.02-4.97,0.04-7.45,0.06l-4.98,0.05c-3.2,0.02-6.4,0.03-9.6,0.03
	c0.01-0.34,0.02-0.76,0.02-1.18l0.02-1.12l0.06-2.15c0.03-0.9,0.05-1.81,0.08-2.71c0.03-1.74,0.05-3.5,0.08-5.24l0.05-3.96
	c0.05-4.55,0.04-9.1,0.02-13.65l-0.01-1.75c-0.01-2.35-0.02-4.67,0-7c0.05-18.11,0.05-31.85-0.02-44.54
	c-0.02-3.76-0.09-7.53-0.17-11.29c-0.03-1.27-0.05-2.52-0.08-3.79l-0.04-1.89l-0.05-2.83c0.02-0.85,0.05-1.71,0.08-2.56
	c0.12-3.13,0.15-6.29,0.18-9.52l0.02-1.69c0.05-3.76,0.1-7.54,0.16-11.31c0.28-16.81,0.39-30.79,0.37-43.98l-0.02-8.69l-0.02-8.68
	c-0.01-1.27-0.03-2.54-0.06-3.8l-0.02-0.99c-0.02-0.65-0.02-1.3-0.03-1.96l-0.01-0.94c-0.02-2.01-0.03-4.07-0.22-6.06l0.23-0.74
	c0.18-0.61,0.35-1.21,0.55-1.81c0.19-0.38,0.38-0.77,0.56-1.15l0.16-0.34l0.31-0.67c0.22-0.39,0.47-0.77,0.71-1.15l0.11-0.18
	l0.35-0.58c0.84-1.33,1.69-2.62,2.54-3.83c1.73-2.31,3.81-5,6.21-7.42c1.04-1.06,2.12-2.06,3.21-3.07l0.24-0.22l0.41-0.38
	c1.23-1.13,2.48-2.22,3.76-3.29c1.28-1.02,2.58-2,3.89-2.98l1.01-0.76l1.37-1.04l0.99-0.74l1.24-0.97l0.27-0.21l0.9-0.71l0.48-0.38
	c0.66-0.52,1.32-1.04,1.99-1.53c0.41-0.31,0.84-0.61,1.27-0.9l0.57-0.37l0.36-0.23l0.35-0.23l1-0.67l0.28-0.18l0.56-0.37
	c0.28-0.18,0.53-0.35,0.79-0.52c0.8-0.5,1.63-0.95,2.45-1.4c1.68-0.9,3.09-1.66,4.49-2.45c1.19-0.67,2.49-1.33,4-2.05l0.48-0.21
	l0.38-0.18l0.61-0.28l0.32-0.15l0.32-0.15c0.57-0.25,1.14-0.49,1.73-0.71c0.73-0.25,1.46-0.48,2.21-0.7
	c0.61-0.18,1.22-0.38,1.82-0.58c0.98-0.32,1.96-0.64,2.97-0.92c1.36-0.35,2.71-0.62,4.35-0.93l0.27-0.05l0.35-0.11l0.32-0.01
	c1-0.17,2-0.34,2.99-0.54l1.11-0.25l1.24-0.25c0.11,0.03,0.26,0.05,0.43,0.05c1.61-0.07,3.14-0.08,4.67-0.08l1.38,0.01
	c0.78,0,1.56,0,2.34-0.01l3.78-0.02c1.89-0.02,3.78-0.03,5.67-0.03l4.82-0.02c4.86-0.02,9.65-0.03,14.46-0.05
	c4.29-0.02,8.56-0.06,12.84-0.1l4.27-0.03l3.43-0.03h20.13h14.42h14.41h13.58c1.99,0,3.96,0,5.94,0.01l1.63,0.01l1.63,0.01
	C1042.11,419.31,1042.59,419.31,1043.05,419.3L1043.05,419.3L1043.05,419.3z M873.36,454.23l0.15-0.31
	c0.19-0.38,0.38-0.76,0.56-1.14c0.23-0.48,0.46-0.95,0.7-1.42c0.73-1.4,1.61-2.8,2.63-4.17c0.29-0.32,0.61-0.61,0.94-0.9
	c0.31-0.25,0.6-0.51,0.88-0.77c0.25-0.24,0.51-0.48,0.78-0.7l0.36-0.25c0.15-0.08,0.28-0.18,0.42-0.28
	c0.36-0.25,0.71-0.53,1.04-0.81c0.65-0.48,1.3-0.97,1.93-1.46c0.44-0.33,0.9-0.63,1.36-0.92c0.37-0.21,0.72-0.45,1.07-0.69
	l0.24-0.15c0.23-0.15,0.41-0.27,0.59-0.36c0.35-0.14,0.7-0.28,1.04-0.44l0.56-0.26l0.55-0.26c0.2-0.08,0.39-0.15,0.6-0.21l0.35-0.13
	l0.3-0.12l0.19-0.07l0.54-0.2l0.34-0.09l0.23-0.06c0.23-0.06,0.44-0.13,0.66-0.21c0.33-0.11,0.58-0.18,0.81-0.25l0.74,0.03
	l0.47,0.02c0.21,0.02,0.41,0.02,0.58,0.02l0.27,0.01l0.54,0.03l0.54,0.03c0.85,0.03,1.69,0.04,2.53,0.04l1.09,0.02
	c2.7,0.03,5.4,0.05,8.1,0.07c5.83,0.03,11.66,0.06,17.5,0.08l13.45,0.04h1.17h1.23c5.96,0.02,11.83,0.05,17.7,0.06h1.96
	c4.31,0.02,8.63,0.02,12.93,0.02c4.23,0,8.47-0.01,12.7-0.04l5.41-0.05c2.71-0.03,5.41-0.05,8.11-0.07
	c3.81-0.02,7.62-0.02,11.43-0.02c-0.08,0.27-0.08,0.61-0.08,0.95l-0.01,0.2v0.41l-0.03,1.15l-0.04,1.15
	c-0.05,2.55-0.08,5.08-0.09,7.63l-0.03,4.32c-0.03,4.35-0.06,8.67-0.07,12.99l-0.01,2.84c-0.01,1.42-0.02,2.84-0.01,4.26
	c0.02,1.7,0.03,3.39,0.04,5.09l0.02,3.84l0.05,7.4c0.03,3.7,0.05,7.4,0.07,11.09c0.01,3.17,0.04,6.34,0.08,9.51
	c0.02,1.54,0.02,3.07,0.03,4.61c0.01,1.57,0.02,3.1,0.03,4.63l0.04,3.47l0.01,1.44c0.02,1.55,0.03,2.94,0.03,4.34
	c0.01,3.05,0.02,6.11,0.05,9.17l0.05,8.12l0.02,4.08l0.02,2.84c0.03,6.69,0.06,13.36,0.14,20.04l0.03,7.68l0.02,7.71
	c0.02,10.04,0.04,20.08,0.05,30.12c0,1.85-0.01,3.56-0.02,5.27l-0.01,1.19c-0.02,2.05-0.03,4.02-0.02,5.99
	c0.02,1.87,0.03,3.71,0.04,5.55c0,0.94,0,1.89,0.03,2.83c0.01,0.19,0.02,0.39,0.02,0.58l0.01,0.29v0.44
	c0.02,0.57,0.05,0.97,0.28,1.36c0.15,0.26,0.37,0.45,0.64,0.55c-0.05,0.39-0.05,0.84-0.05,1.3l0.01,0.67v0.9
	c-0.8,1.59-1.53,3.14-2.16,4.6l-0.15,0.34l-0.08,0.21c-0.61,1.44-1.13,2.77-1.63,4.11c-2.03,5.48-3.51,11.16-4.41,16.89l-4.89-0.09
	h-9.68l-9.68-0.01c-10.37,0-20.72,0.01-31.09,0.05c-9.68,0.05-19.17,0.09-28.67,0.11c-4.22,0.02-8.46,0.04-12.68,0.06l-0.21,0.01
	c-5.14,0.03-10.21,0.05-15.29,0.05l-11.23,0.01h-5.73c-0.01-0.08-0.1-0.24-0.25-0.4c-0.32-0.32-0.78-0.53-1.17-0.53h-2.4
	c0.04-1.45,0.04-2.94,0.03-4.45v-2.25l-0.01-1.69v-0.35c-0.02-2.78-0.03-5.45-0.03-8.12l-0.01-5.08l-0.01-5.11l-0.02-2.45
	l-0.02-2.93l-0.04-4.03l-0.02-1.82l-0.02-3.27v-0.24v-0.28c0.02-11.31,0.03-22.51,0.04-33.73c0.01-13.02,0.01-26.04-0.03-39.05
	c-0.02-4.74-0.03-9.37-0.05-14v-0.37c-0.03-7.98-0.06-15.81-0.05-23.64c0-4.12-0.01-8.24-0.02-12.37l-0.01-2.06l-0.01-0.87
	c-0.01-2.94-0.02-5.87-0.1-8.79l-0.05-1.14c-0.02-0.48-0.04-0.97-0.05-1.45c-0.02-0.99-0.02-1.99-0.03-2.97l-0.02-2.88l-0.02-2.78
	v-0.41c-0.01-1.79-0.02-3.45-0.02-5.1v-0.84v-1.69l-0.01-0.35v-0.25c0-0.19,0-0.31,0.01-0.44c0.02-0.13,0.03-0.28,0.03-0.41
	c-0.01-0.35-0.01-0.69-0.01-1.04l-0.02-1.59l-0.01-1.59v-0.51c0.07-0.12,0.1-0.28,0.09-0.45c-0.1-1.04-0.09-1.89-0.08-2.72
	l0.01-0.21c0-0.5-0.02-1-0.03-1.5c0.01-0.61-0.01-1.13-0.03-1.65V462l0.05-0.25l0.16-0.79c0.08-0.47,0.2-0.94,0.31-1.4l0.15-0.63
	c0.28-1.26,0.77-2.46,1.28-3.68l0.15-0.35l0.1-0.25l0.07-0.21l0.09-0.24C873.36,454.21,873.35,454.23,873.36,454.23L873.36,454.23
	L873.36,454.23L873.36,454.23z M1233.74,628.43c0.57,0,1.15-0.01,1.72-0.01l1.58-0.01l-0.02,0.11
	C1235.92,628.48,1234.83,628.45,1233.74,628.43L1233.74,628.43L1233.74,628.43z"/>
<path d="M977.85,450.25L977.85,450.25h-18.08c-12.69,0.01-25.27,0.02-37.84,0.03c-10.43,0.01-20.85,0.02-31.27,0.05
	c-1.11,0-2.01,0.9-2.01,2.01v1.31c-0.01,1.02-0.01,2.04,0.01,3.07l0.03,1.03l0.01,0.51c0.01,0.52,0.03,1.03,0.03,1.55
	c0.02,3.02,0.03,6.04,0.04,9.07c0.02,6.16,0.02,12.34,0.02,18.5c0.01,8.17,0.01,16.34,0.01,24.51l-0.01,12.25v1.81l-0.01,1.82
	c-0.01,1.01,0.84,1.86,1.89,1.89c1.3,0.02,2.59,0.03,3.89,0.03l2.22-0.01H899c3.1,0,6.2,0,9.3-0.01h9.35l9.34,0.01h11.39h12.54
	l12.54,0.01c10.22,0,20.44-0.02,30.66-0.05c1.02-0.01,1.87-0.87,1.87-1.88c0-1.69-0.01-3.39-0.01-5.08l-0.01-2.52l-0.01-2.22
	c-0.01-2.22-0.01-4.44-0.01-6.65c0-2.81,0.01-5.62,0.01-8.43l0.01-4.2l0.02-6.33c0.01-3.66,0.03-7.33,0.05-10.99l0.05-6.59
	c0.02-3.47,0.02-6.95,0.03-10.43c0-2.48,0-4.97,0.02-7.45l0.01-2.25l0.01-2.25c0-1.11-0.94-2.04-2.04-2.04
	c-3.01,0-6.02-0.01-9.02-0.02L977.85,450.25L977.85,450.25L977.85,450.25z"/>
<path d="M835.96,660.64c-0.49,0.49-0.86,1.26-0.81,1.96c-0.02,0.44-0.03,0.88-0.04,1.33c-0.15,0.38-0.25,0.78-0.27,1.21
	c-0.03,0.52-0.01,1.06-0.01,1.59c0,0.87,0,1.74,0.01,2.61c0.02,1.82,0.02,3.66,0.04,5.48c0.02,3.7,0.05,7.38,0.07,11.08
	c0.03,3.83,0.05,7.67,0.1,11.51c0.02,1.77,0.04,3.55,0.07,5.33c0.01,0.42,0.02,0.84,0.02,1.27c0,1.67,0,3.34-0.01,5.01
	c-0.01,4.59,0.05,9.18,0.03,13.77c-0.01,0.08-0.02,0.15-0.03,0.22c0,0.56,0.15,1.08,0.42,1.56c0.56,0.95,1.59,1.54,2.69,1.54
	c11.49-0.01,22.99-0.21,34.49-0.31c12.4-0.11,24.8-0.2,37.2-0.31c12.04-0.11,24.07-0.2,36.11-0.36c11.42-0.15,22.84-0.32,34.26-0.34
	c0.65,0,1.31-0.01,1.96-0.01c0.43,0,0.86-0.02,1.28,0.01c0.85,0.08,1.73,0.08,2.59,0.08c3.07-0.01,6.14-0.02,9.22-0.04
	c1.42-0.01,2.62-1.19,2.61-2.61c-0.02-2.33-0.02-4.66-0.04-6.99c0-0.99-0.02-1.98-0.01-2.97c0.01-0.48,0.02-0.98-0.04-1.47
	c-0.03-0.97-0.02-1.93-0.01-2.91c0.01-1.3,0.01-2.61,0.02-3.92c0.02-2.64,0-5.27-0.01-7.91c-0.01-2.59-0.02-5.18-0.01-7.78
	c0-1.12,0-2.23-0.01-3.35c-0.01-0.63-0.02-1.26-0.02-1.89c0-0.18,0-0.38-0.02-0.57c-0.02-0.15-0.02-0.27-0.05-0.38
	c-0.01-0.8-0.03-1.59-0.13-2.38c-0.01-0.18-0.02-0.36-0.03-0.54c-0.01-0.2-0.03-0.38-0.05-0.57c0-0.5,0.05-1,0.01-1.5
	c0-0.24-0.03-0.48-0.09-0.69c-0.23-0.82-0.89-1.48-1.71-1.71c-0.64-0.17-1.32-0.08-1.89,0.25c-0.37,0.21-0.66,0.51-0.88,0.87
	c-0.22,0.38-0.33,0.8-0.33,1.23c-0.05,0.51,0.02,1.03,0.02,1.54c0,0,0,0.01,0,0.01c0.01,0,0.03,0,0.04,0l-0.05,0.49
	c-0.02,0.2-0.02,0.4-0.04,0.61c-0.04,0.18-0.06,0.39-0.06,0.61c-0.05,0.46-0.05,0.93-0.05,1.4l0.01,0.43
	c-0.02,0.17-0.04,0.34-0.05,0.52c-0.02,0.67-0.01,1.33,0,2c0,1.11,0.01,2.22,0.02,3.34l0.02,2.58l0.05,5.14
	c0.02,2.65,0.03,5.29,0.07,7.93l0.02,1.94l0.03,1.94l0.02,0.94c0.02,0.8,0.03,1.59,0.02,2.39c-0.04,0.34-0.04,0.69-0.04,1.03
	l0.01,0.26c0.01,0.9,0.02,1.8,0.02,2.7l0.02,2.39l-0.03,2.44l-3.48,0.02l-3.49,0.02c-0.75,0.01-1.53,0.04-2.28,0.11
	c-0.25,0.02-0.51,0.03-0.76,0.03h-0.31c-0.18-0.01-0.35-0.01-0.53-0.01c-0.69,0-1.38,0-2.18,0.02c-3.62,0.02-7.24,0.04-10.86,0.04
	l-6.29-0.01c-10.51-0.03-21.02-0.06-31.53-0.06l-3.73,0.01c-8.04,0-16.08,0.01-24.12,0.02l-8.05,0.02
	c-11.78,0.02-23.56,0.05-35.34,0.05h-5.6l-2.58-0.01h-2.58h-3.82l-3.98-0.02l-0.02-4.35l-0.01-1.63c-0.01-1.63-0.02-3.26-0.05-4.88
	c-0.02-1.69-0.04-3.38-0.05-5.08v-1.2c0.02-1.78,0.02-3.56,0.02-5.33c0.01-2.88,0-5.76-0.01-8.63l-0.01-2.88l0.01-7.51
	c0-1.19-0.01-2.38-0.01-3.57c0-1.82-0.01-3.66-0.02-5.48c0-0.77-0.01-1.53-0.02-2.29c0-0.63,0.02-1.27-0.02-1.9
	c0,0-0.01,0-0.02,0.01c0.01-0.45-0.08-0.89-0.27-1.3c-0.01-0.41-0.02-0.83-0.05-1.24c-0.05-0.75-0.28-1.43-0.81-1.96
	c-0.52-0.52-1.23-0.81-1.97-0.81S836.49,660.11,835.96,660.64L835.96,660.64L835.96,660.64z M835.27,721.97
	c0,0.04-0.01,0.07-0.02,0.1C835.27,722.04,835.27,722.01,835.27,721.97L835.27,721.97L835.27,721.97z"/>
<path class="st1" d="M841.85,678.13h-0.74l-0.01,7.76l0.01,2.88c0.01,2.88,0.02,5.75,0.01,8.63c0,1.77-0.01,3.55-0.02,5.33v1.2
	c0.02,1.69,0.03,3.38,0.05,5.08c0.02,1.63,0.03,3.25,0.04,4.88l0.01,1.63l0.02,4.35l3.98,0.02h3.82h2.58l2.58,0.01h5.6
	c11.78,0,23.57-0.02,35.34-0.05l8.05-0.01c8.04-0.01,16.08-0.03,24.12-0.03l3.73-0.01c10.51,0,21.02,0.03,31.53,0.06l6.29,0.01
	c3.62,0,7.24-0.02,10.86-0.04c0.8-0.01,1.48-0.02,2.18-0.02c0.18,0,0.35,0,0.53,0.01l0.31,0c0.25,0,0.51-0.01,0.76-0.03
	c0.75-0.07,1.52-0.1,2.28-0.11l3.49-0.02l3.48-0.02l0.03-2.43l-0.02-2.39c0-0.9-0.01-1.8-0.02-2.7l-0.01-0.26
	c0-0.34,0-0.68,0.04-1.02c0.02-0.8,0-1.6-0.02-2.39l-0.02-0.94l-0.03-1.94l-0.02-1.94c-0.04-2.64-0.05-5.28-0.07-7.93l-0.05-5.14
	l-0.02-2.58c-0.02-1.12-0.02-2.23-0.02-3.34c-0.01-0.67-0.02-1.33,0-2c0.01-0.18,0.02-0.35,0.05-0.52l-0.01-0.43
	c-0.01-0.47-0.01-0.93,0.05-1.39c0-0.22,0.02-0.42,0.07-0.61c0.01-0.2,0.02-0.4,0.03-0.6l0.05-0.49c-1.9-0.03-3.78-0.04-5.66-0.04
	l-3.29,0l-3.28,0l-10.14,0.01c-16.62,0-33.48-0.08-49.96-0.17l-2.96-0.01l-6.01-0.02l-2.99-0.02c-5.89-0.05-11.78-0.05-17.68-0.06
	l-2.53,0l-2.53-0.01h-2.85h-3.2h-3.61h-4.06l-3.24-0.02l-3.24-0.02l-3.22-0.02l-3.23-0.02l-3.33-0.02
	C851.12,678.17,846.51,678.13,841.85,678.13L841.85,678.13L841.85,678.13z"/>
<path d="M349.67,593.8c-0.77,0.42-1.53,0.84-2.3,1.27c-0.25,0.01-0.47,0.08-0.67,0.19c-0.11,0.05-0.21,0.12-0.31,0.18
	c-0.51,0.29-0.99,0.61-1.5,0.9c-1.21,0.69-2.42,1.4-3.61,2.12c-2.74,1.64-5.49,3.3-8.23,4.96c-6.32,3.82-12.6,7.72-18.89,11.58
	c-13.66,8.38-27.32,16.75-41,25.12c-27.98,17.12-55.94,34.26-83.88,51.43c-25.45,15.63-50.88,31.28-76.35,46.89
	c-4.03,2.47-8.06,4.93-12.09,7.39c-3.22,1.97-6.45,3.94-9.68,5.9c-1.51,0.92-3.03,1.85-4.53,2.78c-0.97,0.61-1.94,1.22-2.92,1.82
	c-0.66,0.41-0.9,1.26-0.53,1.94c0,0.02,0.01,0.03,0.02,0.05c0.01,0.02,0.02,0.03,0.02,0.05c0.41,0.62,1.29,0.86,1.94,0.45
	c0.75-0.46,1.51-0.92,2.27-1.38c-0.02,0-0.03-0.01-0.05-0.01l0.99-0.6l0.97-0.59c0.84-0.51,1.68-1.01,2.51-1.53l7.98-4.91
	c4.17-2.58,8.36-5.14,12.54-7.71c4.88-2.99,9.76-5.97,14.64-8.95c6.94-4.26,13.89-8.5,20.85-12.74l6.44-3.93l15.82-9.66l18.4-11.25
	l9.19-5.62c19.1-11.68,38.2-23.35,57.29-35.05l11.43-7.02c9.98-6.13,19.96-12.25,29.95-18.37l12.46-7.64l7.77-4.75l6-3.66l1-0.61
	c3.9-2.38,7.8-4.77,11.7-7.18c2.6-1.61,5.21-3.23,7.8-4.85l1.59-1.03l0.6-0.38l1-0.64l1.49-0.92c0.1-0.06,0.19-0.13,0.28-0.2
	l0.28-0.21c0.08-0.11,0.17-0.21,0.38-0.41h0.01l0.02,0.02c0.67-0.45,1.33-0.9,2-1.36c0.48-0.33,0.7-0.94,0.38-1.47
	c-0.2-0.35-0.56-0.53-0.94-0.53C350.02,593.66,349.84,593.71,349.67,593.8L349.67,593.8L349.67,593.8z"/>
<path d="M347.59,621.94l-0.22,0.14c-0.12,0.01-0.25,0.05-0.38,0.12c-0.08,0.04-0.15,0.08-0.41,0.22l-0.52,0.31l-1.51,0.88
	c-0.04-0.01-0.08-0.02-0.16-0.02c-0.03,0-0.07,0-0.12,0.01c-0.18,0.01-0.37,0.02-0.61,0.09l-0.24,0.06c-0.2,0.04-0.4,0.15-0.56,0.23
	c-0.41,0.21-0.82,0.47-1.31,0.76l-0.52,0.31l-1.41,0.85c-0.73,0.44-1.46,0.87-2.19,1.3c-2.32,1.37-4.62,2.75-6.93,4.14
	c-3.4,2.05-6.78,4.13-10.17,6.21l-2.4,1.47l-3.48,2.14l-14.26,8.76l-5.44,3.34l-14.31,8.77c-4.91,3.01-9.81,6.02-14.72,9.02
	l-2.86,1.75l-17.59,10.76l-18.08,11.1l-18.08,11.1c-24.05,14.78-48.09,29.58-72.19,44.41l-1.67,1.04l-2.71,1.66l-2.02,1.25
	l-1.06,0.65l-0.78,0.49l-0.92,0.52c-0.59,0.35-1.18,0.71-1.77,1.06c0.01,0,0.01,0.01,0.01,0.01c-0.25,0.14-0.46,0.33-0.61,0.6
	c-0.23,0.39-0.29,0.87-0.17,1.3c0.28,1.04,1.54,1.59,2.48,1.01c0.92-0.57,1.84-1.14,2.76-1.71c0.6-0.31,1.17-0.71,1.74-1.06
	c0.68-0.41,1.36-0.83,2.04-1.24c1.46-0.9,2.92-1.79,4.39-2.68c3-1.83,5.99-3.66,8.99-5.48c6.16-3.76,12.31-7.5,18.45-11.25
	c12.01-7.32,24.02-14.64,36.02-21.97c23.84-14.57,47.69-29.13,71.5-43.75c11.55-7.09,23.12-14.17,34.7-21.24
	c5.49-3.34,10.97-6.7,16.45-10.06c4.86-2.97,9.71-5.96,14.51-9.02c1.09-0.69,2.19-1.36,3.28-2.05c0.6-0.38,1.19-0.75,1.78-1.13
	c0.19-0.12,0.62-0.38,0.75-0.54c0.05-0.06,0.09-0.12,0.13-0.16c0.12-0.11,0.23-0.21,0.31-0.36c0.05-0.06,0.08-0.12,0.12-0.18
	c0.06-0.1,0.11-0.21,0.15-0.32c0.05-0.04,0.11-0.08,0.16-0.12c0.53-0.34,1.06-0.66,1.58-1c0.18-0.11,0.37-0.23,0.55-0.35
	c0.15-0.1,0.26-0.2,0.35-0.32c0.06-0.05,0.13-0.08,0.19-0.13c0.48-0.28,0.65-0.9,0.37-1.39c-0.1-0.17-0.24-0.3-0.4-0.38l0,0.04
	c-0.15-0.08-0.31-0.11-0.48-0.11S347.74,621.85,347.59,621.94L347.59,621.94L347.59,621.94z"/>
<path d="M127.68,756.54c-0.01,0-0.02,0-0.03,0c-0.39,0.01-0.78,0.02-1.17,0.03c0,0-0.01,0-0.01,0c-0.02,0-0.04,0-0.06,0l-0.08,0.04
	c-0.25,0-0.49-0.01-0.74-0.02l-0.51-0.01l-0.26-0.01c-0.48,0-0.97,0.03-1.44,0.06l-0.21,0.02l-0.56,0.02
	c-0.44,0.01-0.87,0.02-1.3,0.06l-0.61,0.05c-0.29,0.03-0.58,0.05-0.87,0.08c-0.38,0.02-0.77,0.02-1.16,0.02l-0.81-0.01l-0.34-0.01
	c-0.41,0-0.81,0.02-1.41,0.05c-0.67,0.03-1.35,0.05-2.03,0.05c-0.64,0-1.27,0.02-2.06,0.05l-0.59,0.01l-0.59,0.01l-0.6,0.01
	c-0.52,0-1.04,0.03-1.56,0.07h-0.78l0.25,0.03l-0.56,0.02c-0.74,0.02-1.47,0.05-2.21,0.11l-1,0.09c-0.56,0.05-1.13,0.11-1.69,0.15
	c-0.52,0.02-1.05,0.02-1.59,0.02h-0.36h-0.37c-0.58,0-1.15,0.04-1.72,0.08l-0.52,0.04c-0.39,0.01-0.77,0.01-1.17,0.01
	c-0.54,0-1.07-0.01-1.61-0.02c-0.58-0.02-1.16-0.02-1.74-0.02c-0.38,0-0.75-0.02-1.13-0.03l-0.54-0.02l-0.58-0.02
	c-0.38,0-0.77-0.01-1.14-0.03l-0.25-0.02c-0.49-0.03-0.99-0.06-1.59-0.07c-0.16,0-0.33,0.01-0.49,0.02c-0.07,0-0.14,0-0.21,0
	c-0.06,0-0.12,0-0.17,0c-0.19,0.02-0.38,0.05-0.57,0.07c-0.59,0.08-1.17,0.12-1.76,0.17c-0.42,0.03-0.69,0.51-0.62,0.9
	c0.08,0.44,0.48,0.64,0.9,0.61c0.53-0.04,1.06-0.07,1.58-0.15c0.41-0.06,0.82-0.11,1.24-0.13c0.93-0.02,1.86,0.08,2.79,0.11
	c0.97,0.02,1.95,0.09,2.93,0.11c0.82,0.02,1.65,0.09,2.48,0.12c0.86,0.02,1.73,0,2.58-0.03c0.56-0.02,1.12,0,1.68,0.01
	c0.58,0.02,1.17,0.03,1.75,0.01c1.24-0.04,2.49-0.18,3.74-0.25c0.58-0.02,1.17-0.02,1.76-0.02c0.62-0.01,1.24-0.05,1.86-0.03
	c0.58,0.02,1.14,0.04,1.72,0.04c0.62,0,1.24-0.03,1.86-0.02c0.58,0.01,1.16,0,1.74,0c0.71-0.02,1.43-0.02,2.14-0.01
	c0.64,0.02,1.29,0.05,1.93,0.04c0.63-0.01,1.25-0.05,1.88-0.08c-0.02,0-0.04,0-0.06,0c0.02,0,0.04,0,0.06,0
	c0.05,0,0.11-0.01,0.16-0.01c0.52-0.01,1.04,0.01,1.56,0.05c0.58,0.03,1.16,0.02,1.74,0.06c0.48,0.02,0.95,0.06,1.43,0.1
	c0.38,0.03,0.77-0.01,1.16-0.04c0.16,0,0.32,0.01,0.49,0c0.21-0.01,0.42-0.02,0.63-0.04c0.2-0.02,0.44-0.15,0.62-0.24
	c0.36-0.18,0.61-0.52,0.64-0.92c0.03-0.36-0.14-0.83-0.48-1.01c-0.13-0.08-0.26-0.15-0.4-0.21c-0.16-0.06-0.34-0.08-0.51-0.12
	c-0.03-0.01-0.06-0.01-0.11-0.01C127.91,756.51,127.7,756.54,127.68,756.54L127.68,756.54L127.68,756.54z M106.08,758.99
	c-0.03,0.01-0.07,0.01-0.1,0.01C106.01,759,106.05,758.99,106.08,758.99L106.08,758.99L106.08,758.99z"/>
<path d="M124.9,758.6c-0.88,0.01-1.76,0.02-2.65,0.02c-1.07,0.01-2.14,0.02-3.2,0.03c-0.01,0-0.02,0-0.03,0
	c-0.21-0.01-0.43,0-0.64,0.01c-0.31,0-0.61,0.01-0.92,0.01c-1.52,0.02-3.04,0.04-4.55,0.05c-0.03,0-0.06,0-0.09,0
	c-2.3,0.01-4.61,0.02-6.9,0.04c-3.18,0.02-6.36,0.02-9.55,0.03c-1.6,0.01-3.21,0.02-4.81,0.02c-0.81,0-1.63,0.01-2.45,0
	c-0.35,0-0.7,0-1.05,0c-0.15-0.01-0.3,0-0.45-0.01c-0.25-0.03-0.51-0.01-0.77-0.01c-0.67,0.02-1.33,0.02-2,0.05c0,0,0,0,0,0
	c-0.16,0-0.32,0.05-0.46,0.13c-0.47,0.04-0.8,0.55-0.68,1.01c0.08,0.27,0.29,0.48,0.56,0.56c0.04,0.01,0.08,0.02,0.12,0.02
	c0.14,0.08,0.3,0.12,0.46,0.13c0.62,0.02,1.25,0.01,1.88,0.02c0.32,0,0.65,0.02,0.97-0.03c0.38-0.02,0.77-0.01,1.16-0.02
	c0.8-0.02,1.59-0.03,2.39-0.04c1.62-0.02,3.24-0.04,4.85-0.05c3.17-0.03,6.34-0.08,9.51-0.11c2.17-0.02,4.34-0.04,6.5-0.07
	c0.17,0,0.34,0,0.5,0c1.53-0.01,3.06-0.02,4.58-0.02c0.58,0,1.15,0.01,1.73-0.01c0.06,0,0.11,0,0.17,0c1.06,0,2.12-0.01,3.18-0.01
	c0.88-0.01,1.76-0.01,2.65-0.02c0.35-0.01,0.7-0.01,1.05-0.01c0.13,0,0.26-0.01,0.38-0.05c0.14-0.04,0.27-0.12,0.37-0.22
	c0.05-0.05,0.1-0.11,0.14-0.17c0.08-0.14,0.12-0.29,0.12-0.45c0-0.07-0.01-0.14-0.03-0.21c0-0.02-0.01-0.03-0.01-0.04
	c0-0.01-0.01-0.02-0.01-0.03c0,0,0-0.01,0-0.01c-0.01-0.04-0.03-0.07-0.05-0.11c0,0,0,0,0,0c-0.01-0.01-0.01-0.02-0.02-0.03
	c-0.07-0.12-0.18-0.22-0.29-0.29c-0.04-0.02-0.08-0.04-0.12-0.06c-0.03-0.01-0.05-0.02-0.08-0.03c-0.12-0.04-0.25-0.05-0.38-0.05
	C125.6,758.59,125.25,758.6,124.9,758.6L124.9,758.6L124.9,758.6z"/>
<path class="st1" d="M348.73,597L348.73,597c-0.21,0.2-0.3,0.31-0.38,0.41l-0.28,0.21c-0.08,0.07-0.18,0.14-0.28,0.2l-1.49,0.92
	l-0.99,0.63l-0.6,0.39l-1.59,1.03c-2.59,1.63-5.2,3.24-7.8,4.85c-3.89,2.41-7.79,4.79-11.7,7.18l-1,0.61l-6,3.66l-7.77,4.75
	l-12.46,7.64c-9.99,6.12-19.97,12.24-29.95,18.37l-11.43,7.02c-19.09,11.7-38.19,23.37-57.29,35.05l-9.19,5.62l-18.4,11.25
	l-15.82,9.66l-6.44,3.93c-6.95,4.25-13.91,8.49-20.85,12.74c-4.88,2.98-9.76,5.96-14.64,8.95c-4.19,2.56-8.37,5.13-12.54,7.71
	l-7.98,4.91c-0.84,0.51-1.67,1.02-2.51,1.53l-0.97,0.59l-0.99,0.6c0.1,0.02,0.21,0.03,0.3,0.03c0.07,0,0.14,0,0.21-0.01
	c0.16-0.01,0.33-0.02,0.49-0.02c0.6,0.01,1.1,0.04,1.59,0.07l0.24,0.02c0.38,0.02,0.76,0.03,1.14,0.03l0.57,0.02l0.54,0.02
	c0.38,0.02,0.75,0.03,1.13,0.03c0.58,0,1.16,0,1.74,0.02c0.54,0.01,1.08,0.02,1.61,0.02c0.39,0,0.77,0,1.17-0.01l0.52-0.04
	c0.57-0.04,1.14-0.08,1.72-0.08h0.37h0.36c0.53,0,1.06-0.01,1.59-0.02c0.57-0.04,1.13-0.09,1.69-0.15l1-0.09
	c0.74-0.06,1.47-0.08,2.21-0.11l0.56-0.02l-0.25-0.02l0.78-0.01c0.52-0.04,1.03-0.07,1.56-0.07l0.6-0.01l0.59-0.01L112,757
	c0.79-0.04,1.43-0.05,2.06-0.05c0.68,0,1.36-0.02,2.03-0.05c0.6-0.03,1-0.05,1.41-0.05l0.34,0.01l0.81,0.01
	c0.39,0,0.78-0.01,1.16-0.02c0.29-0.02,0.58-0.05,0.88-0.08l0.61-0.05c0.43-0.04,0.87-0.05,1.3-0.06l0.56-0.02l0.22-0.02
	c0.47-0.03,0.96-0.06,1.44-0.06l0.26,0.01l0.51,0.01c0.24,0.02,0.48,0.02,0.74,0.02l2.37-1.32l0.78-0.49l1.06-0.65l2.02-1.25
	l2.71-1.66l1.67-1.04c24.1-14.84,48.14-29.63,72.19-44.41l18.08-11.1l18.08-11.1l17.59-10.76l2.85-1.75c4.91-3,9.82-6.01,14.73-9.02
	l14.3-8.77l5.45-3.34l14.26-8.76l3.48-2.14l2.4-1.47c3.39-2.08,6.77-4.16,10.17-6.21c2.31-1.39,4.62-2.77,6.93-4.14
	c0.73-0.43,1.46-0.87,2.19-1.3l1.41-0.85l0.52-0.31c0.49-0.3,0.89-0.54,1.31-0.76c0.16-0.09,0.36-0.2,0.56-0.24l0.23-0.05
	c0.25-0.08,0.43-0.09,0.61-0.1c0.05,0,0.08,0,0.12,0c0.09,0,0.12,0.01,0.17,0.02l1.51-0.88l0.52-0.31c0.25-0.14,0.33-0.19,0.4-0.22
	c0.13-0.08,0.25-0.12,0.38-0.13l0.22-0.13c0.15-0.08,0.32-0.13,0.5-0.13c0.17,0,0.34,0.04,0.48,0.12l0.08-2.53l0.09-17.21l0.03-5.15
	L348.73,597L348.73,597L348.73,597z"/>
<path d="M286.27,633.19c-7.77,4.67-15.56,9.33-23.34,14c-0.53-0.89-1.07-1.79-1.6-2.68l-0.03,0.02l-0.64-1.07l-0.58-1.05l-0.34-0.61
	l-0.15-0.31c-0.05-0.08-0.11-0.15-0.17-0.18c-0.03,0-0.14-0.21-0.14-0.21l-0.31-0.5l-0.31-0.5l-0.23-0.37l-0.59-0.96l-0.12-0.2
	c-0.13-0.2-0.13-0.21-0.11-0.21l-0.12-0.16l-0.11-0.18c-0.08-0.13-0.24-0.21-0.4-0.21c-0.08,0-0.15,0.02-0.23,0.05
	c-0.1,0.06-0.18,0.17-0.25,0.31c-0.02,0.11,0,0.22,0.06,0.32c0.05,0.09,0.11,0.18,0.16,0.27c0.02,0.02,0.02,0.05,0.04,0.07
	c0.01,0.01,0.02,0.02,0.02,0.03c0.02,0.03,0.04,0.07,0.06,0.1c0.02,0.02,0.03,0.05,0.05,0.08c0,0,0.01,0,0.01,0.01
	c0.06,0.11,0.12,0.21,0.19,0.32c0.19,0.33,0.38,0.66,0.58,1c0.2,0.35,0.39,0.68,0.59,1.02c0.08,0.14,0.17,0.28,0.25,0.41
	c0.01,0.07,0.02,0.14,0.06,0.2c0.02,0.06,0.05,0.11,0.1,0.16c0.01,0.02,0.02,0.03,0.03,0.05c0,0,0,0,0,0.01
	c0.03,0.04,0.06,0.08,0.09,0.11c0,0,0,0,0.01,0.01s0.01,0.02,0.02,0.02c0.33,0.51,0.66,1.01,0.99,1.52
	c0.84,1.41,1.69,2.82,2.54,4.24c0.14,0.22,0.44,0.31,0.67,0.17c7.92-4.75,15.83-9.5,23.75-14.24c0.23-0.14,0.31-0.44,0.18-0.67
	c-0.09-0.15-0.27-0.25-0.44-0.25C286.42,633.12,286.34,633.15,286.27,633.19L286.27,633.19L286.27,633.19z"/>
<path d="M223.68,569.59c-0.96,0.58-1.92,1.16-2.88,1.73c-0.54,0.32-1.07,0.64-1.6,0.96c-0.21,0.13-0.43,0.25-0.64,0.38
	c-0.07,0.04-0.13,0.09-0.17,0.14c-0.25,0.21-0.35,0.59-0.26,0.9c0.06,0.22,0.21,0.41,0.41,0.53c0.22,0.13,0.44,0.13,0.68,0.08
	c0.09-0.01,0.18-0.04,0.26-0.09c0.21-0.13,0.43-0.26,0.64-0.39c0.53-0.31,1.07-0.64,1.59-0.96c0.97-0.58,1.92-1.15,2.88-1.73
	c0.42-0.25,0.58-0.81,0.33-1.23c-0.17-0.28-0.48-0.45-0.8-0.45C223.97,569.47,223.82,569.5,223.68,569.59L223.68,569.59
	L223.68,569.59z"/>
<path d="M228.79,567.01c-0.92,0.55-1.83,1.1-2.74,1.65c-0.24,0.14-0.47,0.28-0.69,0.42c-0.23,0.14-0.31,0.44-0.18,0.67
	c0.13,0.22,0.44,0.31,0.67,0.18c1.15-0.69,2.29-1.38,3.43-2.06c0.23-0.14,0.31-0.44,0.18-0.67c-0.09-0.15-0.26-0.24-0.43-0.24
	C228.94,566.94,228.86,566.96,228.79,567.01L228.79,567.01L228.79,567.01z"/>
<path d="M222.28,584.2c-0.41,0.25-0.59,0.82-0.33,1.24c0.75,1.23,1.48,2.46,2.22,3.69c0.25,0.42,0.81,0.58,1.24,0.32
	c0.41-0.25,0.58-0.81,0.32-1.23c-0.74-1.23-1.49-2.45-2.22-3.69c-0.17-0.28-0.48-0.45-0.79-0.45
	C222.57,584.08,222.42,584.12,222.28,584.2L222.28,584.2L222.28,584.2z"/>
<path d="M288.23,530.35c-10.37,6.26-20.75,12.47-31.13,18.71c-1.43,0.87-2.87,1.73-4.3,2.59c-4.44,2.66-8.87,5.31-13.32,7.97
	c-5.16,3.09-10.32,6.19-15.5,9.24c-0.84,0.5-1.69,1-2.55,1.47c-0.08,0.03-0.16,0.06-0.24,0.11c-0.02,0.02-0.04,0.02-0.05,0.04
	c-1.74,1.04-3.47,2.09-5.22,3.12c-0.67,0.41-0.94,1.31-0.52,2c6.43,10.73,12.83,21.48,19.24,32.22
	c6.4,10.73,12.82,21.44,19.25,32.15c1.59,2.65,3.17,5.29,4.76,7.94c0.43,0.71,1.4,1,2.13,0.56c1.06-0.64,2.12-1.29,3.18-1.93
	c9.48-5.62,18.91-11.31,28.35-16.98c9.55-5.73,19.11-11.48,28.64-17.24c0.99-0.59,1.98-1.19,2.96-1.78c2.44-1.46,4.88-2.91,7.3-4.39
	c0.59-0.35,1.19-0.71,1.79-1.07c0.7-0.41,0.97-1.34,0.54-2.05c-2.77-4.63-5.58-9.25-8.37-13.87c-1.64-2.72-3.29-5.45-4.94-8.17
	c-1.79-2.99-3.59-5.97-5.39-8.96c-6.52-10.82-13.02-21.64-19.54-32.45c-1.75-2.91-3.5-5.8-5.24-8.71c-0.25-0.41-0.71-0.67-1.18-0.67
	C288.67,530.17,288.44,530.23,288.23,530.35L288.23,530.35L288.23,530.35z M218.65,575.32l2-1.2l2-1.2c0.08-0.05,0.15-0.1,0.24-0.18
	c1.33-0.88,2.71-1.71,4.08-2.54l0.21-0.12l1.43-0.86c1.88-1.14,3.76-2.28,5.64-3.41l2.17-1.3c5.37-3.24,10.75-6.47,16.16-9.71
	l7.16-4.3c7.09-4.24,14.18-8.48,21.26-12.73l6.39-3.83l1.04-0.62l0.01-0.01c0,0,0,0,0.01,0l0.02,0.01c0.01,0,0.02,0.01,0.02,0.02
	l12.3,20.57l6.13,10.25c3.4,5.67,6.79,11.34,10.17,17.01c2.67,4.47,5.34,8.95,8,13.42l1.49,2.49l3.43,5.82
	c0.07,0.11,0.13,0.22,0.2,0.33c0,0,0,0,0,0l0.02,0.03c-0.32,0.2-0.64,0.39-0.97,0.58c-0.81,0.48-1.61,0.96-2.42,1.45l-0.93,0.55
	l-2.55,1.53l-2.42,1.46l-2.42,1.45l-13.23,7.9l-5.95,3.56c-10.4,6.22-20.82,12.44-31.2,18.69c-1.71,1.04-3.42,2.07-5.13,3.11
	l-0.48,0.28l-1.18,0.66c-0.26,0.16-0.53,0.31-0.79,0.47c-1.35-2.26-2.7-4.51-4.05-6.77c-0.01,0.01-0.01,0.03-0.02,0.04
	c-4.76-7.96-9.54-15.92-14.32-23.87c-2.83-4.69-5.66-9.38-8.49-14.07c-3.61-5.98-7.22-11.96-10.84-17.97l-0.94-1.58
	c-1.05-1.75-2.1-3.5-3.14-5.3c-0.02-0.04-0.04-0.07-0.07-0.11c0,0,0,0,0,0C218.66,575.34,218.65,575.33,218.65,575.32L218.65,575.32
	L218.65,575.32z"/>
<path class="st2" d="M288.44,533.32C288.44,533.32,288.44,533.32,288.44,533.32l-0.01,0.01l-1.04,0.62l-6.39,3.83
	c-7.08,4.25-14.17,8.49-21.26,12.73l-7.16,4.3c-5.41,3.24-10.79,6.47-16.16,9.71l-2.17,1.3c-1.89,1.13-3.76,2.27-5.64,3.41
	l-1.43,0.86l-0.21,0.13c-1.37,0.82-2.75,1.65-4.08,2.53c-0.09,0.08-0.16,0.13-0.24,0.18l-2,1.2l-2,1.2
	c1.07,1.85,2.14,3.65,3.22,5.45l0.95,1.58c3.62,6.01,7.23,11.99,10.84,17.97c2.84,4.69,5.67,9.38,8.49,14.07
	c4.78,7.95,9.56,15.91,14.32,23.87c0.08-0.19,0.17-0.32,0.3-0.4c0.08-0.04,0.15-0.06,0.23-0.06c0.16,0,0.32,0.09,0.4,0.22l0.11,0.18
	l0.12,0.16c-0.02,0-0.02,0.01,0.11,0.21l0.12,0.2l0.59,0.96l0.23,0.37l0.31,0.5l0.31,0.5c0,0,0,0,0,0c0,0,0.11,0.21,0.14,0.21
	c0.06,0.04,0.12,0.1,0.17,0.19l0.15,0.31l0.34,0.61l0.58,1.05l0.64,1.07l1.22-0.68l0.48-0.28c1.71-1.04,3.42-2.08,5.13-3.11
	c10.39-6.25,20.8-12.47,31.2-18.69l5.95-3.56l13.23-7.9l2.42-1.45l2.42-1.46l2.55-1.53l0.93-0.56c0.8-0.48,1.61-0.97,2.42-1.44
	c0.33-0.19,0.65-0.38,0.97-0.58l-3.64-6.19l-1.49-2.49c-2.66-4.48-5.33-8.95-8-13.42c-3.39-5.67-6.78-11.34-10.17-17.01l-6.13-10.25
	l-12.3-20.57c0,0-0.02-0.02-0.02-0.02l0,0C288.46,533.32,288.45,533.32,288.44,533.32L288.44,533.32L288.44,533.32z"/>
</svg>
